<mxfile host="app.diagrams.net" agent="Mozilla/5.0 (Windows NT 10.0; Win64; x64) AppleWebKit/537.36 (KHTML, like Gecko) Chrome/133.0.0.0 Safari/537.36" version="24.7.6">
  <diagram name="Page-1" id="fjY3A7BjzkTIIjHuKg7W">
    <mxGraphModel grid="1" page="1" gridSize="10" guides="1" tooltips="1" connect="1" arrows="1" fold="1" pageScale="1" pageWidth="1654" pageHeight="1169" math="0" shadow="0">
      <root>
        <mxCell id="0" />
        <mxCell id="1" parent="0" />
        <mxCell id="RXSs1f2tlcP7hVlA23r_-79" value="" style="ellipse;whiteSpace=wrap;html=1;sketch=1;hachureGap=4;jiggle=2;curveFitting=1;fontFamily=Architects Daughter;fontSource=https%3A%2F%2Ffonts.googleapis.com%2Fcss%3Ffamily%3DArchitects%2BDaughter;direction=south;fillColor=#e1d5e7;strokeColor=#9673a6;" vertex="1" parent="1">
          <mxGeometry x="1449.52" y="387.5" width="10" height="100" as="geometry" />
        </mxCell>
        <mxCell id="RXSs1f2tlcP7hVlA23r_-78" value="" style="ellipse;whiteSpace=wrap;html=1;sketch=1;hachureGap=4;jiggle=2;curveFitting=1;fontFamily=Architects Daughter;fontSource=https%3A%2F%2Ffonts.googleapis.com%2Fcss%3Ffamily%3DArchitects%2BDaughter;direction=south;fillColor=#fff2cc;strokeColor=#d6b656;" vertex="1" parent="1">
          <mxGeometry x="1007.6" y="387.5" width="10" height="100" as="geometry" />
        </mxCell>
        <mxCell id="RXSs1f2tlcP7hVlA23r_-77" value="" style="ellipse;whiteSpace=wrap;html=1;sketch=1;hachureGap=4;jiggle=2;curveFitting=1;fontFamily=Architects Daughter;fontSource=https%3A%2F%2Ffonts.googleapis.com%2Fcss%3Ffamily%3DArchitects%2BDaughter;direction=south;fillColor=#dae8fc;strokeColor=#6c8ebf;" vertex="1" parent="1">
          <mxGeometry x="560" y="387.5" width="10" height="100" as="geometry" />
        </mxCell>
        <mxCell id="694_kqd1ENcuf0BIbk9--7" value="" style="ellipse;whiteSpace=wrap;html=1;sketch=1;hachureGap=4;jiggle=2;curveFitting=1;fontFamily=Architects Daughter;fontSource=https%3A%2F%2Ffonts.googleapis.com%2Fcss%3Ffamily%3DArchitects%2BDaughter;direction=south;fillColor=#dae8fc;strokeColor=#6c8ebf;" vertex="1" parent="1">
          <mxGeometry x="541.54" y="390" width="10" height="100" as="geometry" />
        </mxCell>
        <mxCell id="KGmbzjt1s6p-L2s5GnYh-10" value="" style="sketch=0;points=[[0.015,0.015,0],[0.985,0.015,0],[0.985,0.985,0],[0.015,0.985,0],[0.25,0,0],[0.5,0,0],[0.75,0,0],[1,0.25,0],[1,0.5,0],[1,0.75,0],[0.75,1,0],[0.5,1,0],[0.25,1,0],[0,0.75,0],[0,0.5,0],[0,0.25,0]];verticalLabelPosition=bottom;html=1;verticalAlign=top;aspect=fixed;align=center;pointerEvents=1;shape=mxgraph.cisco19.rect;prIcon=nexus_9300;fillColor=#d5e8d4;strokeColor=#82b366;hachureGap=4;jiggle=2;curveFitting=1;fontFamily=Architects Daughter;fontSource=https%3A%2F%2Ffonts.googleapis.com%2Fcss%3Ffamily%3DArchitects%2BDaughter;" vertex="1" parent="1">
          <mxGeometry x="710" y="80" width="80" height="80" as="geometry" />
        </mxCell>
        <mxCell id="KGmbzjt1s6p-L2s5GnYh-11" value="" style="sketch=0;points=[[0.015,0.015,0],[0.985,0.015,0],[0.985,0.985,0],[0.015,0.985,0],[0.25,0,0],[0.5,0,0],[0.75,0,0],[1,0.25,0],[1,0.5,0],[1,0.75,0],[0.75,1,0],[0.5,1,0],[0.25,1,0],[0,0.75,0],[0,0.5,0],[0,0.25,0]];verticalLabelPosition=bottom;html=1;verticalAlign=top;aspect=fixed;align=center;pointerEvents=1;shape=mxgraph.cisco19.rect;prIcon=nexus_1k;fillColor=#dae8fc;strokeColor=#6c8ebf;hachureGap=4;jiggle=2;curveFitting=1;fontFamily=Architects Daughter;fontSource=https%3A%2F%2Ffonts.googleapis.com%2Fcss%3Ffamily%3DArchitects%2BDaughter;" vertex="1" parent="1">
          <mxGeometry x="380" y="400" width="102.4" height="80" as="geometry" />
        </mxCell>
        <mxCell id="KGmbzjt1s6p-L2s5GnYh-13" value="" style="sketch=0;points=[[0.015,0.015,0],[0.985,0.015,0],[0.985,0.985,0],[0.015,0.985,0],[0.25,0,0],[0.5,0,0],[0.75,0,0],[1,0.25,0],[1,0.5,0],[1,0.75,0],[0.75,1,0],[0.5,1,0],[0.25,1,0],[0,0.75,0],[0,0.5,0],[0,0.25,0]];verticalLabelPosition=bottom;html=1;verticalAlign=top;aspect=fixed;align=center;pointerEvents=1;shape=mxgraph.cisco19.rect;prIcon=nexus_9300;fillColor=#f8cecc;strokeColor=#b85450;hachureGap=4;jiggle=2;curveFitting=1;fontFamily=Architects Daughter;fontSource=https%3A%2F%2Ffonts.googleapis.com%2Fcss%3Ffamily%3DArchitects%2BDaughter;" vertex="1" parent="1">
          <mxGeometry x="1190" y="80" width="80" height="80" as="geometry" />
        </mxCell>
        <mxCell id="KGmbzjt1s6p-L2s5GnYh-14" value="" style="sketch=0;points=[[0.015,0.015,0],[0.985,0.015,0],[0.985,0.985,0],[0.015,0.985,0],[0.25,0,0],[0.5,0,0],[0.75,0,0],[1,0.25,0],[1,0.5,0],[1,0.75,0],[0.75,1,0],[0.5,1,0],[0.25,1,0],[0,0.75,0],[0,0.5,0],[0,0.25,0]];verticalLabelPosition=bottom;html=1;verticalAlign=top;aspect=fixed;align=center;pointerEvents=1;shape=mxgraph.cisco19.rect;prIcon=nexus_1k;fillColor=#dae8fc;strokeColor=#6c8ebf;hachureGap=4;jiggle=2;curveFitting=1;fontFamily=Architects Daughter;fontSource=https%3A%2F%2Ffonts.googleapis.com%2Fcss%3Ffamily%3DArchitects%2BDaughter;" vertex="1" parent="1">
          <mxGeometry x="610" y="400" width="102.4" height="80" as="geometry" />
        </mxCell>
        <mxCell id="694_kqd1ENcuf0BIbk9--1" value="" style="endArrow=none;html=1;rounded=0;sketch=1;hachureGap=4;jiggle=2;curveFitting=1;fontFamily=Architects Daughter;fontSource=https%3A%2F%2Ffonts.googleapis.com%2Fcss%3Ffamily%3DArchitects%2BDaughter;exitX=1;exitY=0.25;exitDx=0;exitDy=0;exitPerimeter=0;entryX=0;entryY=0.25;entryDx=0;entryDy=0;entryPerimeter=0;fillColor=#dae8fc;strokeColor=#6c8ebf;" edge="1" parent="1" source="KGmbzjt1s6p-L2s5GnYh-11" target="KGmbzjt1s6p-L2s5GnYh-14">
          <mxGeometry width="50" height="50" relative="1" as="geometry">
            <mxPoint x="790" y="530" as="sourcePoint" />
            <mxPoint x="840" y="480" as="targetPoint" />
          </mxGeometry>
        </mxCell>
        <mxCell id="694_kqd1ENcuf0BIbk9--2" value="" style="endArrow=none;html=1;rounded=0;sketch=1;hachureGap=4;jiggle=2;curveFitting=1;fontFamily=Architects Daughter;fontSource=https%3A%2F%2Ffonts.googleapis.com%2Fcss%3Ffamily%3DArchitects%2BDaughter;exitX=1;exitY=0.75;exitDx=0;exitDy=0;exitPerimeter=0;entryX=0;entryY=0.75;entryDx=0;entryDy=0;entryPerimeter=0;fillColor=#dae8fc;strokeColor=#6c8ebf;" edge="1" parent="1" source="KGmbzjt1s6p-L2s5GnYh-11" target="KGmbzjt1s6p-L2s5GnYh-14">
          <mxGeometry width="50" height="50" relative="1" as="geometry">
            <mxPoint x="790" y="530" as="sourcePoint" />
            <mxPoint x="840" y="480" as="targetPoint" />
          </mxGeometry>
        </mxCell>
        <mxCell id="694_kqd1ENcuf0BIbk9--3" value="&lt;blockquote&gt;&lt;b&gt;Eth4/1&lt;/b&gt;&lt;/blockquote&gt;" style="text;html=1;align=center;verticalAlign=middle;whiteSpace=wrap;rounded=0;fontFamily=Architects Daughter;fontSource=https%3A%2F%2Ffonts.googleapis.com%2Fcss%3Ffamily%3DArchitects%2BDaughter;fillColor=none;strokeColor=none;" vertex="1" parent="1">
          <mxGeometry x="450" y="440" width="110" height="30" as="geometry" />
        </mxCell>
        <mxCell id="694_kqd1ENcuf0BIbk9--4" value="&lt;blockquote&gt;&lt;b&gt;Eth3/1&lt;/b&gt;&lt;/blockquote&gt;" style="text;html=1;align=center;verticalAlign=middle;whiteSpace=wrap;rounded=0;fontFamily=Architects Daughter;fontSource=https%3A%2F%2Ffonts.googleapis.com%2Fcss%3Ffamily%3DArchitects%2BDaughter;fillColor=none;strokeColor=none;" vertex="1" parent="1">
          <mxGeometry x="450" y="400" width="110" height="30" as="geometry" />
        </mxCell>
        <mxCell id="694_kqd1ENcuf0BIbk9--10" value="&lt;b&gt;Po 1000&lt;/b&gt;" style="text;html=1;align=center;verticalAlign=middle;whiteSpace=wrap;rounded=0;fontFamily=Architects Daughter;fontSource=https%3A%2F%2Ffonts.googleapis.com%2Fcss%3Ffamily%3DArchitects%2BDaughter;fillColor=default;strokeColor=none;" vertex="1" parent="1">
          <mxGeometry x="525" y="422.5" width="60" height="30" as="geometry" />
        </mxCell>
        <mxCell id="694_kqd1ENcuf0BIbk9--11" value="&lt;div&gt;&lt;b&gt;LEAF 1&lt;/b&gt;&lt;/div&gt;" style="text;html=1;align=center;verticalAlign=middle;whiteSpace=wrap;rounded=0;fontFamily=Architects Daughter;fontSource=https%3A%2F%2Ffonts.googleapis.com%2Fcss%3Ffamily%3DArchitects%2BDaughter;fillColor=#dae8fc;strokeColor=#6c8ebf;" vertex="1" parent="1">
          <mxGeometry x="401.2" y="420" width="60" height="35" as="geometry" />
        </mxCell>
        <mxCell id="694_kqd1ENcuf0BIbk9--12" value="&lt;div&gt;&lt;b&gt;LEAF 2&lt;br&gt;&lt;/b&gt;&lt;/div&gt;" style="text;html=1;align=center;verticalAlign=middle;whiteSpace=wrap;rounded=0;fontFamily=Architects Daughter;fontSource=https%3A%2F%2Ffonts.googleapis.com%2Fcss%3Ffamily%3DArchitects%2BDaughter;fillColor=#dae8fc;strokeColor=#6c8ebf;" vertex="1" parent="1">
          <mxGeometry x="631.2" y="420" width="60" height="35" as="geometry" />
        </mxCell>
        <mxCell id="694_kqd1ENcuf0BIbk9--14" value="&lt;b&gt;SPINE 1&lt;/b&gt;" style="text;html=1;align=center;verticalAlign=middle;whiteSpace=wrap;rounded=0;fontFamily=Architects Daughter;fontSource=https%3A%2F%2Ffonts.googleapis.com%2Fcss%3Ffamily%3DArchitects%2BDaughter;" vertex="1" parent="1">
          <mxGeometry x="720" y="140" width="60" height="20" as="geometry" />
        </mxCell>
        <mxCell id="694_kqd1ENcuf0BIbk9--15" value="&lt;b&gt;SPINE 2&lt;br&gt;&lt;/b&gt;" style="text;html=1;align=center;verticalAlign=middle;whiteSpace=wrap;rounded=0;fontFamily=Architects Daughter;fontSource=https%3A%2F%2Ffonts.googleapis.com%2Fcss%3Ffamily%3DArchitects%2BDaughter;" vertex="1" parent="1">
          <mxGeometry x="1200" y="140" width="60" height="20" as="geometry" />
        </mxCell>
        <mxCell id="694_kqd1ENcuf0BIbk9--16" value="" style="ellipse;whiteSpace=wrap;html=1;sketch=1;hachureGap=4;jiggle=2;curveFitting=1;fontFamily=Architects Daughter;fontSource=https%3A%2F%2Ffonts.googleapis.com%2Fcss%3Ffamily%3DArchitects%2BDaughter;direction=south;fillColor=#fff2cc;strokeColor=#d6b656;" vertex="1" parent="1">
          <mxGeometry x="990" y="387.5" width="10" height="100" as="geometry" />
        </mxCell>
        <mxCell id="694_kqd1ENcuf0BIbk9--17" value="" style="sketch=0;points=[[0.015,0.015,0],[0.985,0.015,0],[0.985,0.985,0],[0.015,0.985,0],[0.25,0,0],[0.5,0,0],[0.75,0,0],[1,0.25,0],[1,0.5,0],[1,0.75,0],[0.75,1,0],[0.5,1,0],[0.25,1,0],[0,0.75,0],[0,0.5,0],[0,0.25,0]];verticalLabelPosition=bottom;html=1;verticalAlign=top;aspect=fixed;align=center;pointerEvents=1;shape=mxgraph.cisco19.rect;prIcon=nexus_1k;fillColor=#fff2cc;strokeColor=#d6b656;hachureGap=4;jiggle=2;curveFitting=1;fontFamily=Architects Daughter;fontSource=https%3A%2F%2Ffonts.googleapis.com%2Fcss%3Ffamily%3DArchitects%2BDaughter;" vertex="1" parent="1">
          <mxGeometry x="827.6" y="400" width="102.4" height="80" as="geometry" />
        </mxCell>
        <mxCell id="694_kqd1ENcuf0BIbk9--18" value="" style="sketch=0;points=[[0.015,0.015,0],[0.985,0.015,0],[0.985,0.985,0],[0.015,0.985,0],[0.25,0,0],[0.5,0,0],[0.75,0,0],[1,0.25,0],[1,0.5,0],[1,0.75,0],[0.75,1,0],[0.5,1,0],[0.25,1,0],[0,0.75,0],[0,0.5,0],[0,0.25,0]];verticalLabelPosition=bottom;html=1;verticalAlign=top;aspect=fixed;align=center;pointerEvents=1;shape=mxgraph.cisco19.rect;prIcon=nexus_1k;fillColor=#fff2cc;strokeColor=#d6b656;hachureGap=4;jiggle=2;curveFitting=1;fontFamily=Architects Daughter;fontSource=https%3A%2F%2Ffonts.googleapis.com%2Fcss%3Ffamily%3DArchitects%2BDaughter;" vertex="1" parent="1">
          <mxGeometry x="1057.6" y="400" width="102.4" height="80" as="geometry" />
        </mxCell>
        <mxCell id="694_kqd1ENcuf0BIbk9--19" value="" style="endArrow=none;html=1;rounded=0;sketch=1;hachureGap=4;jiggle=2;curveFitting=1;fontFamily=Architects Daughter;fontSource=https%3A%2F%2Ffonts.googleapis.com%2Fcss%3Ffamily%3DArchitects%2BDaughter;exitX=1;exitY=0.25;exitDx=0;exitDy=0;exitPerimeter=0;entryX=0;entryY=0.25;entryDx=0;entryDy=0;entryPerimeter=0;fillColor=#fff2cc;strokeColor=#d6b656;" edge="1" parent="1" source="694_kqd1ENcuf0BIbk9--17" target="694_kqd1ENcuf0BIbk9--18">
          <mxGeometry width="50" height="50" relative="1" as="geometry">
            <mxPoint x="1237.6" y="530" as="sourcePoint" />
            <mxPoint x="1287.6" y="480" as="targetPoint" />
          </mxGeometry>
        </mxCell>
        <mxCell id="694_kqd1ENcuf0BIbk9--20" value="" style="endArrow=none;html=1;rounded=0;sketch=1;hachureGap=4;jiggle=2;curveFitting=1;fontFamily=Architects Daughter;fontSource=https%3A%2F%2Ffonts.googleapis.com%2Fcss%3Ffamily%3DArchitects%2BDaughter;exitX=1;exitY=0.75;exitDx=0;exitDy=0;exitPerimeter=0;entryX=0;entryY=0.75;entryDx=0;entryDy=0;entryPerimeter=0;fillColor=#fff2cc;strokeColor=#d6b656;" edge="1" parent="1" source="694_kqd1ENcuf0BIbk9--17" target="694_kqd1ENcuf0BIbk9--18">
          <mxGeometry width="50" height="50" relative="1" as="geometry">
            <mxPoint x="1237.6" y="530" as="sourcePoint" />
            <mxPoint x="1287.6" y="480" as="targetPoint" />
          </mxGeometry>
        </mxCell>
        <mxCell id="694_kqd1ENcuf0BIbk9--21" value="&lt;blockquote&gt;&lt;b&gt;Eth4/1&lt;/b&gt;&lt;/blockquote&gt;" style="text;html=1;align=center;verticalAlign=middle;whiteSpace=wrap;rounded=0;fontFamily=Architects Daughter;fontSource=https%3A%2F%2Ffonts.googleapis.com%2Fcss%3Ffamily%3DArchitects%2BDaughter;" vertex="1" parent="1">
          <mxGeometry x="897.6" y="440" width="110" height="30" as="geometry" />
        </mxCell>
        <mxCell id="694_kqd1ENcuf0BIbk9--22" value="&lt;blockquote&gt;&lt;b&gt;Eth3/1&lt;/b&gt;&lt;/blockquote&gt;" style="text;html=1;align=center;verticalAlign=middle;whiteSpace=wrap;rounded=0;fontFamily=Architects Daughter;fontSource=https%3A%2F%2Ffonts.googleapis.com%2Fcss%3Ffamily%3DArchitects%2BDaughter;" vertex="1" parent="1">
          <mxGeometry x="897.6" y="400" width="110" height="30" as="geometry" />
        </mxCell>
        <mxCell id="694_kqd1ENcuf0BIbk9--23" value="&lt;b&gt;Po 1000&lt;/b&gt;" style="text;html=1;align=center;verticalAlign=middle;whiteSpace=wrap;rounded=0;fontFamily=Architects Daughter;fontSource=https%3A%2F%2Ffonts.googleapis.com%2Fcss%3Ffamily%3DArchitects%2BDaughter;fillColor=default;" vertex="1" parent="1">
          <mxGeometry x="972.6" y="422.5" width="60" height="30" as="geometry" />
        </mxCell>
        <mxCell id="694_kqd1ENcuf0BIbk9--24" value="&lt;div&gt;&lt;b&gt;LEAF 3&lt;br&gt;&lt;/b&gt;&lt;/div&gt;" style="text;html=1;align=center;verticalAlign=middle;whiteSpace=wrap;rounded=0;fontFamily=Architects Daughter;fontSource=https%3A%2F%2Ffonts.googleapis.com%2Fcss%3Ffamily%3DArchitects%2BDaughter;fillColor=#fff2cc;strokeColor=#d6b656;" vertex="1" parent="1">
          <mxGeometry x="848.8" y="420" width="60" height="35" as="geometry" />
        </mxCell>
        <mxCell id="694_kqd1ENcuf0BIbk9--25" value="&lt;div&gt;&lt;b&gt;LEAF 4&lt;br&gt;&lt;/b&gt;&lt;/div&gt;" style="text;html=1;align=center;verticalAlign=middle;whiteSpace=wrap;rounded=0;fontFamily=Architects Daughter;fontSource=https%3A%2F%2Ffonts.googleapis.com%2Fcss%3Ffamily%3DArchitects%2BDaughter;fillColor=#fff2cc;strokeColor=#d6b656;" vertex="1" parent="1">
          <mxGeometry x="1078.8000000000002" y="420" width="60" height="35" as="geometry" />
        </mxCell>
        <mxCell id="694_kqd1ENcuf0BIbk9--26" value="" style="ellipse;whiteSpace=wrap;html=1;sketch=1;hachureGap=4;jiggle=2;curveFitting=1;fontFamily=Architects Daughter;fontSource=https%3A%2F%2Ffonts.googleapis.com%2Fcss%3Ffamily%3DArchitects%2BDaughter;direction=south;fillColor=#e1d5e7;strokeColor=#9673a6;" vertex="1" parent="1">
          <mxGeometry x="1430" y="387.5" width="10" height="100" as="geometry" />
        </mxCell>
        <mxCell id="694_kqd1ENcuf0BIbk9--27" value="" style="sketch=0;points=[[0.015,0.015,0],[0.985,0.015,0],[0.985,0.985,0],[0.015,0.985,0],[0.25,0,0],[0.5,0,0],[0.75,0,0],[1,0.25,0],[1,0.5,0],[1,0.75,0],[0.75,1,0],[0.5,1,0],[0.25,1,0],[0,0.75,0],[0,0.5,0],[0,0.25,0]];verticalLabelPosition=bottom;html=1;verticalAlign=top;aspect=fixed;align=center;pointerEvents=1;shape=mxgraph.cisco19.rect;prIcon=nexus_1k;fillColor=#e1d5e7;strokeColor=#9673a6;hachureGap=4;jiggle=2;curveFitting=1;fontFamily=Architects Daughter;fontSource=https%3A%2F%2Ffonts.googleapis.com%2Fcss%3Ffamily%3DArchitects%2BDaughter;" vertex="1" parent="1">
          <mxGeometry x="1270" y="400" width="102.4" height="80" as="geometry" />
        </mxCell>
        <mxCell id="694_kqd1ENcuf0BIbk9--28" value="" style="sketch=0;points=[[0.015,0.015,0],[0.985,0.015,0],[0.985,0.985,0],[0.015,0.985,0],[0.25,0,0],[0.5,0,0],[0.75,0,0],[1,0.25,0],[1,0.5,0],[1,0.75,0],[0.75,1,0],[0.5,1,0],[0.25,1,0],[0,0.75,0],[0,0.5,0],[0,0.25,0]];verticalLabelPosition=bottom;html=1;verticalAlign=top;aspect=fixed;align=center;pointerEvents=1;shape=mxgraph.cisco19.rect;prIcon=nexus_1k;fillColor=#e1d5e7;strokeColor=#9673a6;hachureGap=4;jiggle=2;curveFitting=1;fontFamily=Architects Daughter;fontSource=https%3A%2F%2Ffonts.googleapis.com%2Fcss%3Ffamily%3DArchitects%2BDaughter;" vertex="1" parent="1">
          <mxGeometry x="1500" y="400" width="102.4" height="80" as="geometry" />
        </mxCell>
        <mxCell id="694_kqd1ENcuf0BIbk9--29" value="" style="endArrow=none;html=1;rounded=0;sketch=1;hachureGap=4;jiggle=2;curveFitting=1;fontFamily=Architects Daughter;fontSource=https%3A%2F%2Ffonts.googleapis.com%2Fcss%3Ffamily%3DArchitects%2BDaughter;exitX=1;exitY=0.25;exitDx=0;exitDy=0;exitPerimeter=0;entryX=0;entryY=0.25;entryDx=0;entryDy=0;entryPerimeter=0;fillColor=#e1d5e7;strokeColor=#9673a6;" edge="1" parent="1" source="694_kqd1ENcuf0BIbk9--27" target="694_kqd1ENcuf0BIbk9--28">
          <mxGeometry width="50" height="50" relative="1" as="geometry">
            <mxPoint x="1680" y="530" as="sourcePoint" />
            <mxPoint x="1730" y="480" as="targetPoint" />
          </mxGeometry>
        </mxCell>
        <mxCell id="694_kqd1ENcuf0BIbk9--30" value="" style="endArrow=none;html=1;rounded=0;sketch=1;hachureGap=4;jiggle=2;curveFitting=1;fontFamily=Architects Daughter;fontSource=https%3A%2F%2Ffonts.googleapis.com%2Fcss%3Ffamily%3DArchitects%2BDaughter;exitX=1;exitY=0.75;exitDx=0;exitDy=0;exitPerimeter=0;entryX=0;entryY=0.75;entryDx=0;entryDy=0;entryPerimeter=0;fillColor=#e1d5e7;strokeColor=#9673a6;" edge="1" parent="1" source="694_kqd1ENcuf0BIbk9--27" target="694_kqd1ENcuf0BIbk9--28">
          <mxGeometry width="50" height="50" relative="1" as="geometry">
            <mxPoint x="1680" y="530" as="sourcePoint" />
            <mxPoint x="1730" y="480" as="targetPoint" />
          </mxGeometry>
        </mxCell>
        <mxCell id="694_kqd1ENcuf0BIbk9--31" value="&lt;blockquote&gt;&lt;b&gt;Eth4/1&lt;/b&gt;&lt;/blockquote&gt;" style="text;html=1;align=center;verticalAlign=middle;whiteSpace=wrap;rounded=0;fontFamily=Architects Daughter;fontSource=https%3A%2F%2Ffonts.googleapis.com%2Fcss%3Ffamily%3DArchitects%2BDaughter;" vertex="1" parent="1">
          <mxGeometry x="1340" y="440" width="110" height="30" as="geometry" />
        </mxCell>
        <mxCell id="694_kqd1ENcuf0BIbk9--32" value="&lt;blockquote&gt;&lt;b&gt;Eth3/1&lt;/b&gt;&lt;/blockquote&gt;" style="text;html=1;align=center;verticalAlign=middle;whiteSpace=wrap;rounded=0;fontFamily=Architects Daughter;fontSource=https%3A%2F%2Ffonts.googleapis.com%2Fcss%3Ffamily%3DArchitects%2BDaughter;" vertex="1" parent="1">
          <mxGeometry x="1340" y="400" width="110" height="30" as="geometry" />
        </mxCell>
        <mxCell id="694_kqd1ENcuf0BIbk9--33" value="&lt;b&gt;Po 1000&lt;/b&gt;" style="text;html=1;align=center;verticalAlign=middle;whiteSpace=wrap;rounded=0;fontFamily=Architects Daughter;fontSource=https%3A%2F%2Ffonts.googleapis.com%2Fcss%3Ffamily%3DArchitects%2BDaughter;fillColor=default;" vertex="1" parent="1">
          <mxGeometry x="1415" y="425" width="60" height="30" as="geometry" />
        </mxCell>
        <mxCell id="694_kqd1ENcuf0BIbk9--34" value="&lt;div&gt;&lt;b&gt;LEAF 5&lt;br&gt;&lt;/b&gt;&lt;/div&gt;" style="text;html=1;align=center;verticalAlign=middle;whiteSpace=wrap;rounded=0;fontFamily=Architects Daughter;fontSource=https%3A%2F%2Ffonts.googleapis.com%2Fcss%3Ffamily%3DArchitects%2BDaughter;fillColor=#e1d5e7;strokeColor=#9673a6;" vertex="1" parent="1">
          <mxGeometry x="1291.2" y="420" width="60" height="35" as="geometry" />
        </mxCell>
        <mxCell id="694_kqd1ENcuf0BIbk9--35" value="&lt;div&gt;&lt;b&gt;LEAF 6&lt;br&gt;&lt;/b&gt;&lt;/div&gt;" style="text;html=1;align=center;verticalAlign=middle;whiteSpace=wrap;rounded=0;fontFamily=Architects Daughter;fontSource=https%3A%2F%2Ffonts.googleapis.com%2Fcss%3Ffamily%3DArchitects%2BDaughter;fillColor=#e1d5e7;strokeColor=#9673a6;" vertex="1" parent="1">
          <mxGeometry x="1521.2" y="420" width="60" height="35" as="geometry" />
        </mxCell>
        <mxCell id="694_kqd1ENcuf0BIbk9--36" value="" style="endArrow=none;html=1;rounded=0;sketch=1;hachureGap=4;jiggle=2;curveFitting=1;fontFamily=Architects Daughter;fontSource=https%3A%2F%2Ffonts.googleapis.com%2Fcss%3Ffamily%3DArchitects%2BDaughter;exitX=0.25;exitY=0;exitDx=0;exitDy=0;exitPerimeter=0;entryX=0.5;entryY=1;entryDx=0;entryDy=0;fillColor=#d5e8d4;strokeColor=#82b366;" edge="1" parent="1" source="694_kqd1ENcuf0BIbk9--17" target="694_kqd1ENcuf0BIbk9--14">
          <mxGeometry width="50" height="50" relative="1" as="geometry">
            <mxPoint x="847.6" y="380" as="sourcePoint" />
            <mxPoint x="897.6" y="330" as="targetPoint" />
          </mxGeometry>
        </mxCell>
        <mxCell id="694_kqd1ENcuf0BIbk9--37" value="" style="endArrow=none;html=1;rounded=0;sketch=1;hachureGap=4;jiggle=2;curveFitting=1;fontFamily=Architects Daughter;fontSource=https%3A%2F%2Ffonts.googleapis.com%2Fcss%3Ffamily%3DArchitects%2BDaughter;exitX=0.25;exitY=0;exitDx=0;exitDy=0;exitPerimeter=0;entryX=0.25;entryY=1;entryDx=0;entryDy=0;fillColor=#d5e8d4;strokeColor=#82b366;" edge="1" parent="1" source="KGmbzjt1s6p-L2s5GnYh-14" target="694_kqd1ENcuf0BIbk9--14">
          <mxGeometry width="50" height="50" relative="1" as="geometry">
            <mxPoint x="670" y="380" as="sourcePoint" />
            <mxPoint x="720" y="330" as="targetPoint" />
          </mxGeometry>
        </mxCell>
        <mxCell id="694_kqd1ENcuf0BIbk9--38" value="" style="endArrow=none;html=1;rounded=0;sketch=1;hachureGap=4;jiggle=2;curveFitting=1;fontFamily=Architects Daughter;fontSource=https%3A%2F%2Ffonts.googleapis.com%2Fcss%3Ffamily%3DArchitects%2BDaughter;entryX=0;entryY=1;entryDx=0;entryDy=0;fillColor=#f8cecc;strokeColor=#b85450;" edge="1" parent="1">
          <mxGeometry width="50" height="50" relative="1" as="geometry">
            <mxPoint x="461.2" y="400" as="sourcePoint" />
            <mxPoint x="1191.2" y="160" as="targetPoint" />
          </mxGeometry>
        </mxCell>
        <mxCell id="694_kqd1ENcuf0BIbk9--42" value="" style="endArrow=none;html=1;rounded=0;sketch=1;hachureGap=4;jiggle=2;curveFitting=1;fontFamily=Architects Daughter;fontSource=https%3A%2F%2Ffonts.googleapis.com%2Fcss%3Ffamily%3DArchitects%2BDaughter;exitX=0.195;exitY=0;exitDx=0;exitDy=0;exitPerimeter=0;entryX=0.015;entryY=0.985;entryDx=0;entryDy=0;entryPerimeter=0;fillColor=#d5e8d4;strokeColor=#82b366;" edge="1" parent="1" source="KGmbzjt1s6p-L2s5GnYh-11" target="KGmbzjt1s6p-L2s5GnYh-10">
          <mxGeometry width="50" height="50" relative="1" as="geometry">
            <mxPoint x="432.4" y="320" as="sourcePoint" />
            <mxPoint x="482.4" y="270" as="targetPoint" />
          </mxGeometry>
        </mxCell>
        <mxCell id="694_kqd1ENcuf0BIbk9--50" value="" style="endArrow=none;html=1;rounded=0;sketch=1;hachureGap=4;jiggle=2;curveFitting=1;fontFamily=Architects Daughter;fontSource=https%3A%2F%2Ffonts.googleapis.com%2Fcss%3Ffamily%3DArchitects%2BDaughter;exitX=0.25;exitY=0;exitDx=0;exitDy=0;exitPerimeter=0;entryX=0.75;entryY=1;entryDx=0;entryDy=0;fillColor=#d5e8d4;strokeColor=#82b366;" edge="1" parent="1" source="694_kqd1ENcuf0BIbk9--18" target="694_kqd1ENcuf0BIbk9--14">
          <mxGeometry width="50" height="50" relative="1" as="geometry">
            <mxPoint x="1034" y="520" as="sourcePoint" />
            <mxPoint x="1084" y="470" as="targetPoint" />
          </mxGeometry>
        </mxCell>
        <mxCell id="694_kqd1ENcuf0BIbk9--51" value="" style="endArrow=none;html=1;rounded=0;sketch=1;hachureGap=4;jiggle=2;curveFitting=1;fontFamily=Architects Daughter;fontSource=https%3A%2F%2Ffonts.googleapis.com%2Fcss%3Ffamily%3DArchitects%2BDaughter;exitX=0.25;exitY=0;exitDx=0;exitDy=0;exitPerimeter=0;entryX=1;entryY=1;entryDx=0;entryDy=0;fillColor=#d5e8d4;strokeColor=#82b366;" edge="1" parent="1" source="694_kqd1ENcuf0BIbk9--27" target="694_kqd1ENcuf0BIbk9--14">
          <mxGeometry width="50" height="50" relative="1" as="geometry">
            <mxPoint x="1034" y="520" as="sourcePoint" />
            <mxPoint x="1084" y="470" as="targetPoint" />
          </mxGeometry>
        </mxCell>
        <mxCell id="694_kqd1ENcuf0BIbk9--52" value="" style="endArrow=none;html=1;rounded=0;sketch=1;hachureGap=4;jiggle=2;curveFitting=1;fontFamily=Architects Daughter;fontSource=https%3A%2F%2Ffonts.googleapis.com%2Fcss%3Ffamily%3DArchitects%2BDaughter;exitX=0.75;exitY=0;exitDx=0;exitDy=0;exitPerimeter=0;entryX=0.75;entryY=1;entryDx=0;entryDy=0;fillColor=#f8cecc;strokeColor=#b85450;" edge="1" parent="1" source="694_kqd1ENcuf0BIbk9--18" target="694_kqd1ENcuf0BIbk9--15">
          <mxGeometry width="50" height="50" relative="1" as="geometry">
            <mxPoint x="1034" y="520" as="sourcePoint" />
            <mxPoint x="1084" y="470" as="targetPoint" />
          </mxGeometry>
        </mxCell>
        <mxCell id="694_kqd1ENcuf0BIbk9--53" value="" style="endArrow=none;html=1;rounded=0;sketch=1;hachureGap=4;jiggle=2;curveFitting=1;fontFamily=Architects Daughter;fontSource=https%3A%2F%2Ffonts.googleapis.com%2Fcss%3Ffamily%3DArchitects%2BDaughter;exitX=0.75;exitY=0;exitDx=0;exitDy=0;exitPerimeter=0;entryX=0.5;entryY=1;entryDx=0;entryDy=0;fillColor=#f8cecc;strokeColor=#b85450;" edge="1" parent="1" source="694_kqd1ENcuf0BIbk9--17" target="694_kqd1ENcuf0BIbk9--15">
          <mxGeometry width="50" height="50" relative="1" as="geometry">
            <mxPoint x="1034" y="490" as="sourcePoint" />
            <mxPoint x="1084" y="440" as="targetPoint" />
          </mxGeometry>
        </mxCell>
        <mxCell id="694_kqd1ENcuf0BIbk9--54" value="" style="endArrow=none;html=1;rounded=0;sketch=1;hachureGap=4;jiggle=2;curveFitting=1;fontFamily=Architects Daughter;fontSource=https%3A%2F%2Ffonts.googleapis.com%2Fcss%3Ffamily%3DArchitects%2BDaughter;exitX=0.064;exitY=0.133;exitDx=0;exitDy=0;exitPerimeter=0;entryX=1;entryY=1;entryDx=0;entryDy=0;fillColor=#f8cecc;strokeColor=#b85450;" edge="1" parent="1" source="694_kqd1ENcuf0BIbk9--32" target="694_kqd1ENcuf0BIbk9--15">
          <mxGeometry width="50" height="50" relative="1" as="geometry">
            <mxPoint x="1034" y="490" as="sourcePoint" />
            <mxPoint x="1084" y="440" as="targetPoint" />
          </mxGeometry>
        </mxCell>
        <mxCell id="694_kqd1ENcuf0BIbk9--55" value="" style="endArrow=none;html=1;rounded=0;sketch=1;hachureGap=4;jiggle=2;curveFitting=1;fontFamily=Architects Daughter;fontSource=https%3A%2F%2Ffonts.googleapis.com%2Fcss%3Ffamily%3DArchitects%2BDaughter;entryX=0.674;entryY=-0.037;entryDx=0;entryDy=0;entryPerimeter=0;exitX=1.013;exitY=0.913;exitDx=0;exitDy=0;exitPerimeter=0;fillColor=#f8cecc;strokeColor=#b85450;" edge="1" parent="1" source="KGmbzjt1s6p-L2s5GnYh-13" target="694_kqd1ENcuf0BIbk9--28">
          <mxGeometry width="50" height="50" relative="1" as="geometry">
            <mxPoint x="1034" y="490" as="sourcePoint" />
            <mxPoint x="1084" y="440" as="targetPoint" />
          </mxGeometry>
        </mxCell>
        <mxCell id="694_kqd1ENcuf0BIbk9--56" value="" style="endArrow=none;html=1;rounded=0;sketch=1;hachureGap=4;jiggle=2;curveFitting=1;fontFamily=Architects Daughter;fontSource=https%3A%2F%2Ffonts.googleapis.com%2Fcss%3Ffamily%3DArchitects%2BDaughter;entryX=0.186;entryY=-0.025;entryDx=0;entryDy=0;entryPerimeter=0;exitX=1.013;exitY=0.875;exitDx=0;exitDy=0;exitPerimeter=0;fillColor=#d5e8d4;strokeColor=#82b366;" edge="1" parent="1" source="KGmbzjt1s6p-L2s5GnYh-10" target="694_kqd1ENcuf0BIbk9--28">
          <mxGeometry width="50" height="50" relative="1" as="geometry">
            <mxPoint x="1034" y="490" as="sourcePoint" />
            <mxPoint x="1084" y="440" as="targetPoint" />
          </mxGeometry>
        </mxCell>
        <mxCell id="694_kqd1ENcuf0BIbk9--57" value="" style="endArrow=none;html=1;rounded=0;sketch=1;hachureGap=4;jiggle=2;curveFitting=1;fontFamily=Architects Daughter;fontSource=https%3A%2F%2Ffonts.googleapis.com%2Fcss%3Ffamily%3DArchitects%2BDaughter;exitX=0.75;exitY=0;exitDx=0;exitDy=0;exitPerimeter=0;entryX=0.25;entryY=1;entryDx=0;entryDy=0;fillColor=#f8cecc;strokeColor=#b85450;" edge="1" parent="1" source="KGmbzjt1s6p-L2s5GnYh-14" target="694_kqd1ENcuf0BIbk9--15">
          <mxGeometry width="50" height="50" relative="1" as="geometry">
            <mxPoint x="1034" y="490" as="sourcePoint" />
            <mxPoint x="1084" y="440" as="targetPoint" />
          </mxGeometry>
        </mxCell>
        <mxCell id="694_kqd1ENcuf0BIbk9--61" value="&lt;blockquote&gt;&lt;b style=&quot;color: rgb(204, 0, 0);&quot;&gt;Eth2/1&lt;/b&gt;&lt;/blockquote&gt;" style="text;html=1;align=center;verticalAlign=middle;whiteSpace=wrap;rounded=0;fontFamily=Architects Daughter;fontSource=https%3A%2F%2Ffonts.googleapis.com%2Fcss%3Ffamily%3DArchitects%2BDaughter;fillColor=none;strokeColor=none;rotation=-15;" vertex="1" parent="1">
          <mxGeometry x="478.59999999999997" y="360" width="52.8" height="30" as="geometry" />
        </mxCell>
        <mxCell id="694_kqd1ENcuf0BIbk9--62" value="&lt;blockquote&gt;&lt;b style=&quot;color: rgb(204, 0, 0);&quot;&gt;Eth2/1&lt;/b&gt;&lt;/blockquote&gt;" style="text;html=1;align=center;verticalAlign=middle;whiteSpace=wrap;rounded=0;fontFamily=Architects Daughter;fontSource=https%3A%2F%2Ffonts.googleapis.com%2Fcss%3Ffamily%3DArchitects%2BDaughter;fillColor=none;strokeColor=none;rotation=-20;" vertex="1" parent="1">
          <mxGeometry x="684" y="360" width="52.8" height="30" as="geometry" />
        </mxCell>
        <mxCell id="694_kqd1ENcuf0BIbk9--63" value="&lt;blockquote&gt;&lt;b style=&quot;color: rgb(204, 0, 0);&quot;&gt;Eth2/1&lt;/b&gt;&lt;/blockquote&gt;" style="text;html=1;align=center;verticalAlign=middle;whiteSpace=wrap;rounded=0;fontFamily=Architects Daughter;fontSource=https%3A%2F%2Ffonts.googleapis.com%2Fcss%3Ffamily%3DArchitects%2BDaughter;fillColor=none;strokeColor=none;rotation=-35;" vertex="1" parent="1">
          <mxGeometry x="897.6" y="360" width="52.8" height="30" as="geometry" />
        </mxCell>
        <mxCell id="694_kqd1ENcuf0BIbk9--64" value="&lt;blockquote&gt;&lt;span style=&quot;color: rgb(204, 0, 0);&quot;&gt;Eth2/1&lt;/span&gt;&lt;/blockquote&gt;" style="text;html=1;align=center;verticalAlign=middle;whiteSpace=wrap;rounded=0;fontFamily=Architects Daughter;fontSource=https%3A%2F%2Ffonts.googleapis.com%2Fcss%3Ffamily%3DArchitects%2BDaughter;fillColor=none;strokeColor=none;rotation=-60;fontStyle=1" vertex="1" parent="1">
          <mxGeometry x="1107.2" y="350" width="52.8" height="30" as="geometry" />
        </mxCell>
        <mxCell id="694_kqd1ENcuf0BIbk9--65" value="&lt;blockquote&gt;&lt;b style=&quot;color: rgb(204, 0, 0);&quot;&gt;Eth2/1&lt;/b&gt;&lt;/blockquote&gt;" style="text;html=1;align=center;verticalAlign=middle;whiteSpace=wrap;rounded=0;fontFamily=Architects Daughter;fontSource=https%3A%2F%2Ffonts.googleapis.com%2Fcss%3Ffamily%3DArchitects%2BDaughter;fillColor=none;strokeColor=none;rotation=-108;" vertex="1" parent="1">
          <mxGeometry x="1294.8" y="350" width="52.8" height="30" as="geometry" />
        </mxCell>
        <mxCell id="694_kqd1ENcuf0BIbk9--66" value="&lt;blockquote&gt;&lt;b style=&quot;color: rgb(204, 0, 0);&quot;&gt;Eth2/1&lt;/b&gt;&lt;/blockquote&gt;" style="text;html=1;align=center;verticalAlign=middle;whiteSpace=wrap;rounded=0;fontFamily=Architects Daughter;fontSource=https%3A%2F%2Ffonts.googleapis.com%2Fcss%3Ffamily%3DArchitects%2BDaughter;fillColor=none;strokeColor=none;rotation=-138;" vertex="1" parent="1">
          <mxGeometry x="1500" y="360" width="52.8" height="30" as="geometry" />
        </mxCell>
        <mxCell id="694_kqd1ENcuf0BIbk9--67" value="&lt;blockquote&gt;&lt;b style=&quot;color: rgb(0, 153, 0);&quot;&gt;Eth1/1&lt;/b&gt;&lt;/blockquote&gt;" style="text;html=1;align=center;verticalAlign=middle;whiteSpace=wrap;rounded=0;fontFamily=Architects Daughter;fontSource=https%3A%2F%2Ffonts.googleapis.com%2Fcss%3Ffamily%3DArchitects%2BDaughter;fillColor=none;strokeColor=none;rotation=-30;" vertex="1" parent="1">
          <mxGeometry x="399.52" y="350" width="50.48" height="30" as="geometry" />
        </mxCell>
        <mxCell id="694_kqd1ENcuf0BIbk9--68" value="&lt;blockquote&gt;&lt;b style=&quot;color: rgb(0, 153, 0);&quot;&gt;Eth1/1&lt;/b&gt;&lt;/blockquote&gt;" style="text;html=1;align=center;verticalAlign=middle;whiteSpace=wrap;rounded=0;fontFamily=Architects Daughter;fontSource=https%3A%2F%2Ffonts.googleapis.com%2Fcss%3Ffamily%3DArchitects%2BDaughter;fillColor=none;strokeColor=none;rotation=-65;" vertex="1" parent="1">
          <mxGeometry x="610" y="360" width="50.48" height="30" as="geometry" />
        </mxCell>
        <mxCell id="694_kqd1ENcuf0BIbk9--69" value="&lt;blockquote&gt;&lt;b style=&quot;color: rgb(0, 153, 0);&quot;&gt;Eth1/1&lt;/b&gt;&lt;/blockquote&gt;" style="text;html=1;align=center;verticalAlign=middle;whiteSpace=wrap;rounded=0;fontFamily=Architects Daughter;fontSource=https%3A%2F%2Ffonts.googleapis.com%2Fcss%3Ffamily%3DArchitects%2BDaughter;fillColor=none;strokeColor=none;rotation=-111;" vertex="1" parent="1">
          <mxGeometry x="804" y="360" width="50.48" height="30" as="geometry" />
        </mxCell>
        <mxCell id="694_kqd1ENcuf0BIbk9--70" value="&lt;blockquote&gt;&lt;b style=&quot;color: rgb(0, 153, 0);&quot;&gt;Eth1/1&lt;/b&gt;&lt;/blockquote&gt;" style="text;html=1;align=center;verticalAlign=middle;whiteSpace=wrap;rounded=0;fontFamily=Architects Daughter;fontSource=https%3A%2F%2Ffonts.googleapis.com%2Fcss%3Ffamily%3DArchitects%2BDaughter;fillColor=none;strokeColor=none;rotation=-137;" vertex="1" parent="1">
          <mxGeometry x="1013.9999999999999" y="370" width="50.48" height="30" as="geometry" />
        </mxCell>
        <mxCell id="694_kqd1ENcuf0BIbk9--73" value="&lt;blockquote&gt;&lt;b style=&quot;color: rgb(0, 153, 0);&quot;&gt;Eth1/1&lt;/b&gt;&lt;/blockquote&gt;" style="text;html=1;align=center;verticalAlign=middle;whiteSpace=wrap;rounded=0;fontFamily=Architects Daughter;fontSource=https%3A%2F%2Ffonts.googleapis.com%2Fcss%3Ffamily%3DArchitects%2BDaughter;fillColor=none;strokeColor=none;rotation=-150;" vertex="1" parent="1">
          <mxGeometry x="1219.52" y="370" width="50.48" height="30" as="geometry" />
        </mxCell>
        <mxCell id="694_kqd1ENcuf0BIbk9--74" value="&lt;blockquote&gt;&lt;b style=&quot;color: rgb(0, 153, 0);&quot;&gt;Eth1/1&lt;/b&gt;&lt;/blockquote&gt;" style="text;html=1;align=center;verticalAlign=middle;whiteSpace=wrap;rounded=0;fontFamily=Architects Daughter;fontSource=https%3A%2F%2Ffonts.googleapis.com%2Fcss%3Ffamily%3DArchitects%2BDaughter;fillColor=none;strokeColor=none;rotation=-165;" vertex="1" parent="1">
          <mxGeometry x="1449.52" y="380" width="50.48" height="30" as="geometry" />
        </mxCell>
        <mxCell id="694_kqd1ENcuf0BIbk9--77" value="&lt;blockquote&gt;&lt;b style=&quot;color: rgb(0, 153, 0);&quot;&gt;Eth1/1&lt;/b&gt;&lt;/blockquote&gt;" style="text;html=1;align=center;verticalAlign=middle;whiteSpace=wrap;rounded=0;fontFamily=Architects Daughter;fontSource=https%3A%2F%2Ffonts.googleapis.com%2Fcss%3Ffamily%3DArchitects%2BDaughter;fillColor=none;strokeColor=none;rotation=-30;" vertex="1" parent="1">
          <mxGeometry x="661.92" y="150" width="50.48" height="30" as="geometry" />
        </mxCell>
        <mxCell id="694_kqd1ENcuf0BIbk9--78" value="&lt;blockquote&gt;&lt;b style=&quot;color: rgb(0, 153, 0);&quot;&gt;Eth6/1&lt;/b&gt;&lt;/blockquote&gt;" style="text;html=1;align=center;verticalAlign=middle;whiteSpace=wrap;rounded=0;fontFamily=Architects Daughter;fontSource=https%3A%2F%2Ffonts.googleapis.com%2Fcss%3Ffamily%3DArchitects%2BDaughter;fillColor=none;strokeColor=none;rotation=20;" vertex="1" parent="1">
          <mxGeometry x="804" y="140" width="50.48" height="30" as="geometry" />
        </mxCell>
        <mxCell id="694_kqd1ENcuf0BIbk9--79" value="&lt;blockquote&gt;&lt;b style=&quot;color: rgb(204, 0, 0);&quot;&gt;Eth1/1&lt;/b&gt;&lt;/blockquote&gt;" style="text;html=1;align=center;verticalAlign=middle;whiteSpace=wrap;rounded=0;fontFamily=Architects Daughter;fontSource=https%3A%2F%2Ffonts.googleapis.com%2Fcss%3Ffamily%3DArchitects%2BDaughter;fillColor=none;strokeColor=none;rotation=-15;" vertex="1" parent="1">
          <mxGeometry x="1138.8" y="144.55" width="50.48" height="30" as="geometry" />
        </mxCell>
        <mxCell id="694_kqd1ENcuf0BIbk9--80" value="&lt;blockquote&gt;&lt;b style=&quot;color: rgb(204, 0, 0);&quot;&gt;Eth6/1&lt;/b&gt;&lt;/blockquote&gt;" style="text;html=1;align=center;verticalAlign=middle;whiteSpace=wrap;rounded=0;fontFamily=Architects Daughter;fontSource=https%3A%2F%2Ffonts.googleapis.com%2Fcss%3Ffamily%3DArchitects%2BDaughter;fillColor=none;strokeColor=none;rotation=45;" vertex="1" parent="1">
          <mxGeometry x="1270.29" y="150" width="50.48" height="30" as="geometry" />
        </mxCell>
        <mxCell id="694_kqd1ENcuf0BIbk9--81" value="" style="sketch=0;points=[[0.5,0,0],[1,0.5,0],[0.5,1,0],[0,0.5,0],[0.145,0.145,0],[0.8555,0.145,0],[0.855,0.8555,0],[0.145,0.855,0]];verticalLabelPosition=bottom;html=1;verticalAlign=top;aspect=fixed;align=center;pointerEvents=1;shape=mxgraph.cisco19.rect;prIcon=router;fillColor=#d5e8d4;strokeColor=#82b366;hachureGap=4;jiggle=2;curveFitting=1;fontFamily=Architects Daughter;fontSource=https%3A%2F%2Ffonts.googleapis.com%2Fcss%3Ffamily%3DArchitects%2BDaughter;" vertex="1" parent="1">
          <mxGeometry x="45" y="550" width="80" height="80" as="geometry" />
        </mxCell>
        <mxCell id="694_kqd1ENcuf0BIbk9--82" value="" style="sketch=0;points=[[0.5,0,0],[1,0.5,0],[0.5,1,0],[0,0.5,0],[0.145,0.145,0],[0.8555,0.145,0],[0.855,0.8555,0],[0.145,0.855,0]];verticalLabelPosition=bottom;html=1;verticalAlign=top;aspect=fixed;align=center;pointerEvents=1;shape=mxgraph.cisco19.rect;prIcon=router;fillColor=#f8cecc;strokeColor=#b85450;hachureGap=4;jiggle=2;curveFitting=1;fontFamily=Architects Daughter;fontSource=https%3A%2F%2Ffonts.googleapis.com%2Fcss%3Ffamily%3DArchitects%2BDaughter;" vertex="1" parent="1">
          <mxGeometry x="165" y="630" width="80" height="80" as="geometry" />
        </mxCell>
        <mxCell id="694_kqd1ENcuf0BIbk9--83" value="" style="sketch=0;points=[[0.015,0.015,0],[0.985,0.015,0],[0.985,0.985,0],[0.015,0.985,0],[0.25,0,0],[0.5,0,0],[0.75,0,0],[1,0.25,0],[1,0.5,0],[1,0.75,0],[0.75,1,0],[0.5,1,0],[0.25,1,0],[0,0.75,0],[0,0.5,0],[0,0.25,0]];verticalLabelPosition=bottom;html=1;verticalAlign=top;aspect=fixed;align=center;pointerEvents=1;shape=mxgraph.cisco19.server;fillColor=#6666FF;strokeColor=#6c8ebf;hachureGap=4;jiggle=2;curveFitting=1;fontFamily=Architects Daughter;fontSource=https%3A%2F%2Ffonts.googleapis.com%2Fcss%3Ffamily%3DArchitects%2BDaughter;fillStyle=solid;labelBackgroundColor=none;labelBorderColor=none;textShadow=0;" vertex="1" parent="1">
          <mxGeometry x="258" y="747.5" width="44" height="80" as="geometry" />
        </mxCell>
        <mxCell id="694_kqd1ENcuf0BIbk9--84" value="" style="sketch=0;points=[[0.015,0.015,0],[0.985,0.015,0],[0.985,0.985,0],[0.015,0.985,0],[0.25,0,0],[0.5,0,0],[0.75,0,0],[1,0.25,0],[1,0.5,0],[1,0.75,0],[0.75,1,0],[0.5,1,0],[0.25,1,0],[0,0.75,0],[0,0.5,0],[0,0.25,0]];verticalLabelPosition=bottom;html=1;verticalAlign=top;aspect=fixed;align=center;pointerEvents=1;shape=mxgraph.cisco19.rect;prIcon=storage;hachureGap=4;jiggle=2;curveFitting=1;fontFamily=Architects Daughter;fontSource=https%3A%2F%2Ffonts.googleapis.com%2Fcss%3Ffamily%3DArchitects%2BDaughter;fillColor=#dae8fc;strokeColor=#6c8ebf;" vertex="1" parent="1">
          <mxGeometry x="610" y="840" width="102.4" height="80" as="geometry" />
        </mxCell>
        <mxCell id="694_kqd1ENcuf0BIbk9--85" value="" style="sketch=0;points=[[0.015,0.015,0],[0.985,0.015,0],[0.985,0.985,0],[0.015,0.985,0],[0.25,0,0],[0.5,0,0],[0.75,0,0],[1,0.25,0],[1,0.5,0],[1,0.75,0],[0.75,1,0],[0.5,1,0],[0.25,1,0],[0,0.75,0],[0,0.5,0],[0,0.25,0]];verticalLabelPosition=bottom;html=1;verticalAlign=top;aspect=fixed;align=center;pointerEvents=1;shape=mxgraph.cisco19.rect;prIcon=hypervisor;fillColor=#dae8fc;strokeColor=#6c8ebf;hachureGap=4;jiggle=2;curveFitting=1;fontFamily=Architects Daughter;fontSource=https%3A%2F%2Ffonts.googleapis.com%2Fcss%3Ffamily%3DArchitects%2BDaughter;" vertex="1" parent="1">
          <mxGeometry x="480.00000000000006" y="840" width="61.54" height="80" as="geometry" />
        </mxCell>
        <mxCell id="694_kqd1ENcuf0BIbk9--89" value="" style="endArrow=none;html=1;rounded=0;sketch=1;hachureGap=4;jiggle=2;curveFitting=1;fontFamily=Architects Daughter;fontSource=https%3A%2F%2Ffonts.googleapis.com%2Fcss%3Ffamily%3DArchitects%2BDaughter;entryX=0.015;entryY=0.985;entryDx=0;entryDy=0;entryPerimeter=0;exitX=0.5;exitY=0;exitDx=0;exitDy=0;exitPerimeter=0;fillColor=#dae8fc;strokeColor=#6c8ebf;" edge="1" parent="1" source="694_kqd1ENcuf0BIbk9--81" target="KGmbzjt1s6p-L2s5GnYh-11">
          <mxGeometry width="50" height="50" relative="1" as="geometry">
            <mxPoint x="93" y="760" as="sourcePoint" />
            <mxPoint x="640" y="670" as="targetPoint" />
          </mxGeometry>
        </mxCell>
        <mxCell id="694_kqd1ENcuf0BIbk9--90" value="" style="endArrow=none;html=1;rounded=0;sketch=1;hachureGap=4;jiggle=2;curveFitting=1;fontFamily=Architects Daughter;fontSource=https%3A%2F%2Ffonts.googleapis.com%2Fcss%3Ffamily%3DArchitects%2BDaughter;exitX=0.5;exitY=0;exitDx=0;exitDy=0;exitPerimeter=0;entryX=0.015;entryY=0.985;entryDx=0;entryDy=0;entryPerimeter=0;fillColor=#dae8fc;strokeColor=#6c8ebf;" edge="1" parent="1" source="694_kqd1ENcuf0BIbk9--81" target="KGmbzjt1s6p-L2s5GnYh-14">
          <mxGeometry width="50" height="50" relative="1" as="geometry">
            <mxPoint x="590" y="720" as="sourcePoint" />
            <mxPoint x="640" y="670" as="targetPoint" />
          </mxGeometry>
        </mxCell>
        <mxCell id="694_kqd1ENcuf0BIbk9--91" value="" style="endArrow=none;html=1;rounded=0;sketch=1;hachureGap=4;jiggle=2;curveFitting=1;fontFamily=Architects Daughter;fontSource=https%3A%2F%2Ffonts.googleapis.com%2Fcss%3Ffamily%3DArchitects%2BDaughter;entryX=0.25;entryY=1;entryDx=0;entryDy=0;entryPerimeter=0;exitX=0.5;exitY=0;exitDx=0;exitDy=0;exitPerimeter=0;fillColor=#dae8fc;strokeColor=#6c8ebf;" edge="1" parent="1" source="694_kqd1ENcuf0BIbk9--82" target="KGmbzjt1s6p-L2s5GnYh-11">
          <mxGeometry width="50" height="50" relative="1" as="geometry">
            <mxPoint x="280" y="760" as="sourcePoint" />
            <mxPoint x="640" y="670" as="targetPoint" />
          </mxGeometry>
        </mxCell>
        <mxCell id="694_kqd1ENcuf0BIbk9--92" value="" style="endArrow=none;html=1;rounded=0;sketch=1;hachureGap=4;jiggle=2;curveFitting=1;fontFamily=Architects Daughter;fontSource=https%3A%2F%2Ffonts.googleapis.com%2Fcss%3Ffamily%3DArchitects%2BDaughter;exitX=0.5;exitY=0;exitDx=0;exitDy=0;exitPerimeter=0;entryX=0.25;entryY=1;entryDx=0;entryDy=0;entryPerimeter=0;fillColor=#dae8fc;strokeColor=#6c8ebf;" edge="1" parent="1" source="694_kqd1ENcuf0BIbk9--82" target="KGmbzjt1s6p-L2s5GnYh-14">
          <mxGeometry width="50" height="50" relative="1" as="geometry">
            <mxPoint x="590" y="720" as="sourcePoint" />
            <mxPoint x="640" y="670" as="targetPoint" />
          </mxGeometry>
        </mxCell>
        <mxCell id="694_kqd1ENcuf0BIbk9--93" value="" style="endArrow=none;html=1;rounded=0;sketch=1;hachureGap=4;jiggle=2;curveFitting=1;fontFamily=Architects Daughter;fontSource=https%3A%2F%2Ffonts.googleapis.com%2Fcss%3Ffamily%3DArchitects%2BDaughter;exitX=0.5;exitY=0;exitDx=0;exitDy=0;exitPerimeter=0;entryX=0.5;entryY=1;entryDx=0;entryDy=0;entryPerimeter=0;fillColor=#dae8fc;strokeColor=#6c8ebf;" edge="1" parent="1" source="694_kqd1ENcuf0BIbk9--83" target="KGmbzjt1s6p-L2s5GnYh-11">
          <mxGeometry width="50" height="50" relative="1" as="geometry">
            <mxPoint x="590" y="720" as="sourcePoint" />
            <mxPoint x="640" y="670" as="targetPoint" />
          </mxGeometry>
        </mxCell>
        <mxCell id="694_kqd1ENcuf0BIbk9--94" value="" style="endArrow=none;html=1;rounded=0;sketch=1;hachureGap=4;jiggle=2;curveFitting=1;fontFamily=Architects Daughter;fontSource=https%3A%2F%2Ffonts.googleapis.com%2Fcss%3Ffamily%3DArchitects%2BDaughter;exitX=0.015;exitY=0.015;exitDx=0;exitDy=0;exitPerimeter=0;entryX=0.693;entryY=1;entryDx=0;entryDy=0;entryPerimeter=0;fillColor=#dae8fc;strokeColor=#6c8ebf;" edge="1" parent="1" source="694_kqd1ENcuf0BIbk9--85" target="KGmbzjt1s6p-L2s5GnYh-11">
          <mxGeometry width="50" height="50" relative="1" as="geometry">
            <mxPoint x="590" y="720" as="sourcePoint" />
            <mxPoint x="640" y="670" as="targetPoint" />
          </mxGeometry>
        </mxCell>
        <mxCell id="694_kqd1ENcuf0BIbk9--96" value="" style="endArrow=none;html=1;rounded=0;sketch=1;hachureGap=4;jiggle=2;curveFitting=1;fontFamily=Architects Daughter;fontSource=https%3A%2F%2Ffonts.googleapis.com%2Fcss%3Ffamily%3DArchitects%2BDaughter;exitX=0.5;exitY=0;exitDx=0;exitDy=0;exitPerimeter=0;entryX=0.5;entryY=1;entryDx=0;entryDy=0;entryPerimeter=0;fillColor=#dae8fc;strokeColor=#6c8ebf;" edge="1" parent="1" source="694_kqd1ENcuf0BIbk9--83" target="KGmbzjt1s6p-L2s5GnYh-14">
          <mxGeometry width="50" height="50" relative="1" as="geometry">
            <mxPoint x="590" y="720" as="sourcePoint" />
            <mxPoint x="640" y="670" as="targetPoint" />
          </mxGeometry>
        </mxCell>
        <mxCell id="694_kqd1ENcuf0BIbk9--97" value="" style="endArrow=none;html=1;rounded=0;sketch=1;hachureGap=4;jiggle=2;curveFitting=1;fontFamily=Architects Daughter;fontSource=https%3A%2F%2Ffonts.googleapis.com%2Fcss%3Ffamily%3DArchitects%2BDaughter;exitX=0.015;exitY=0.015;exitDx=0;exitDy=0;exitPerimeter=0;entryX=0.75;entryY=1;entryDx=0;entryDy=0;entryPerimeter=0;fillColor=#dae8fc;strokeColor=#6c8ebf;" edge="1" parent="1" source="694_kqd1ENcuf0BIbk9--85" target="KGmbzjt1s6p-L2s5GnYh-14">
          <mxGeometry width="50" height="50" relative="1" as="geometry">
            <mxPoint x="590" y="720" as="sourcePoint" />
            <mxPoint x="640" y="670" as="targetPoint" />
          </mxGeometry>
        </mxCell>
        <mxCell id="694_kqd1ENcuf0BIbk9--101" value="" style="html=1;outlineConnect=0;fillColor=#CCCCCC;strokeColor=none;gradientColor=none;gradientDirection=north;strokeWidth=2;shape=mxgraph.networks.cloud;fontColor=#ffffff;sketch=1;hachureGap=4;jiggle=2;curveFitting=1;fontFamily=Architects Daughter;fontSource=https%3A%2F%2Ffonts.googleapis.com%2Fcss%3Ffamily%3DArchitects%2BDaughter;" vertex="1" parent="1">
          <mxGeometry x="10" y="780" width="150" height="90" as="geometry" />
        </mxCell>
        <mxCell id="694_kqd1ENcuf0BIbk9--103" value="" style="endArrow=none;html=1;rounded=0;sketch=1;hachureGap=4;jiggle=2;curveFitting=1;fontFamily=Architects Daughter;fontSource=https%3A%2F%2Ffonts.googleapis.com%2Fcss%3Ffamily%3DArchitects%2BDaughter;entryX=0.5;entryY=1;entryDx=0;entryDy=0;entryPerimeter=0;exitX=0.5;exitY=0.08;exitDx=0;exitDy=0;exitPerimeter=0;" edge="1" parent="1" source="694_kqd1ENcuf0BIbk9--101" target="694_kqd1ENcuf0BIbk9--81">
          <mxGeometry width="50" height="50" relative="1" as="geometry">
            <mxPoint x="120" y="110" as="sourcePoint" />
            <mxPoint x="765" y="630" as="targetPoint" />
          </mxGeometry>
        </mxCell>
        <mxCell id="694_kqd1ENcuf0BIbk9--106" value="" style="endArrow=none;html=1;rounded=0;sketch=1;hachureGap=4;jiggle=2;curveFitting=1;fontFamily=Architects Daughter;fontSource=https%3A%2F%2Ffonts.googleapis.com%2Fcss%3Ffamily%3DArchitects%2BDaughter;exitX=0.145;exitY=0.855;exitDx=0;exitDy=0;exitPerimeter=0;entryX=0.5;entryY=0.08;entryDx=0;entryDy=0;entryPerimeter=0;" edge="1" parent="1" source="694_kqd1ENcuf0BIbk9--82" target="694_kqd1ENcuf0BIbk9--101">
          <mxGeometry width="50" height="50" relative="1" as="geometry">
            <mxPoint x="395" y="430" as="sourcePoint" />
            <mxPoint x="445" y="380" as="targetPoint" />
          </mxGeometry>
        </mxCell>
        <mxCell id="RXSs1f2tlcP7hVlA23r_-1" value="&lt;b&gt;Core Router 1&lt;/b&gt;" style="text;html=1;align=center;verticalAlign=middle;whiteSpace=wrap;rounded=0;fontFamily=Architects Daughter;fontSource=https%3A%2F%2Ffonts.googleapis.com%2Fcss%3Ffamily%3DArchitects%2BDaughter;fillColor=#d5e8d4;strokeColor=none;" vertex="1" parent="1">
          <mxGeometry x="47.5" y="577.5" width="75" height="25" as="geometry" />
        </mxCell>
        <mxCell id="RXSs1f2tlcP7hVlA23r_-2" value="&lt;b&gt;Core Router 2&lt;br&gt;&lt;/b&gt;" style="text;html=1;align=center;verticalAlign=middle;whiteSpace=wrap;rounded=0;fontFamily=Architects Daughter;fontSource=https%3A%2F%2Ffonts.googleapis.com%2Fcss%3Ffamily%3DArchitects%2BDaughter;fillColor=#f8cecc;strokeColor=none;" vertex="1" parent="1">
          <mxGeometry x="167.5" y="657.5" width="75" height="25" as="geometry" />
        </mxCell>
        <mxCell id="RXSs1f2tlcP7hVlA23r_-3" value="&lt;div&gt;&lt;b&gt;&lt;font&gt;Internet&lt;/font&gt;&lt;/b&gt;&lt;/div&gt;" style="text;html=1;align=center;verticalAlign=middle;whiteSpace=wrap;rounded=0;fontFamily=Architects Daughter;fontSource=https%3A%2F%2Ffonts.googleapis.com%2Fcss%3Ffamily%3DArchitects%2BDaughter;fontSize=18;" vertex="1" parent="1">
          <mxGeometry x="55" y="825" width="60" height="30" as="geometry" />
        </mxCell>
        <mxCell id="RXSs1f2tlcP7hVlA23r_-4" value="&lt;b&gt;Chicken 1&lt;/b&gt;" style="text;html=1;align=center;verticalAlign=middle;whiteSpace=wrap;rounded=0;fontFamily=Architects Daughter;fontSource=https%3A%2F%2Ffonts.googleapis.com%2Fcss%3Ffamily%3DArchitects%2BDaughter;rotation=-90;fillColor=#dae8fc;strokeColor=#6c8ebf;" vertex="1" parent="1">
          <mxGeometry x="250" y="780" width="60" height="15" as="geometry" />
        </mxCell>
        <mxCell id="RXSs1f2tlcP7hVlA23r_-5" value="&lt;b&gt;CEPH 1&lt;/b&gt;" style="text;html=1;align=center;verticalAlign=middle;whiteSpace=wrap;rounded=0;fontFamily=Architects Daughter;fontSource=https%3A%2F%2Ffonts.googleapis.com%2Fcss%3Ffamily%3DArchitects%2BDaughter;fillColor=#dae8fc;strokeColor=none;" vertex="1" parent="1">
          <mxGeometry x="631.2" y="900" width="60" height="10" as="geometry" />
        </mxCell>
        <mxCell id="RXSs1f2tlcP7hVlA23r_-6" value="&lt;b&gt;PVE 1&lt;/b&gt;" style="text;html=1;align=center;verticalAlign=middle;whiteSpace=wrap;rounded=0;fontFamily=Architects Daughter;fontSource=https%3A%2F%2Ffonts.googleapis.com%2Fcss%3Ffamily%3DArchitects%2BDaughter;fillColor=#dae8fc;strokeColor=#6c8ebf;" vertex="1" parent="1">
          <mxGeometry x="490.77" y="872.5" width="40" height="15" as="geometry" />
        </mxCell>
        <mxCell id="RXSs1f2tlcP7hVlA23r_-8" value="" style="sketch=0;points=[[0.015,0.015,0],[0.985,0.015,0],[0.985,0.985,0],[0.015,0.985,0],[0.25,0,0],[0.5,0,0],[0.75,0,0],[1,0.25,0],[1,0.5,0],[1,0.75,0],[0.75,1,0],[0.5,1,0],[0.25,1,0],[0,0.75,0],[0,0.5,0],[0,0.25,0]];verticalLabelPosition=bottom;html=1;verticalAlign=top;aspect=fixed;align=center;pointerEvents=1;shape=mxgraph.cisco19.rect;prIcon=storage;hachureGap=4;jiggle=2;curveFitting=1;fontFamily=Architects Daughter;fontSource=https%3A%2F%2Ffonts.googleapis.com%2Fcss%3Ffamily%3DArchitects%2BDaughter;fillColor=#fff2cc;strokeColor=#d6b656;" vertex="1" parent="1">
          <mxGeometry x="1016.4" y="840" width="102.4" height="80" as="geometry" />
        </mxCell>
        <mxCell id="RXSs1f2tlcP7hVlA23r_-9" value="" style="sketch=0;points=[[0.015,0.015,0],[0.985,0.015,0],[0.985,0.985,0],[0.015,0.985,0],[0.25,0,0],[0.5,0,0],[0.75,0,0],[1,0.25,0],[1,0.5,0],[1,0.75,0],[0.75,1,0],[0.5,1,0],[0.25,1,0],[0,0.75,0],[0,0.5,0],[0,0.25,0]];verticalLabelPosition=bottom;html=1;verticalAlign=top;aspect=fixed;align=center;pointerEvents=1;shape=mxgraph.cisco19.rect;prIcon=hypervisor;fillColor=#fff2cc;strokeColor=#d6b656;hachureGap=4;jiggle=2;curveFitting=1;fontFamily=Architects Daughter;fontSource=https%3A%2F%2Ffonts.googleapis.com%2Fcss%3Ffamily%3DArchitects%2BDaughter;" vertex="1" parent="1">
          <mxGeometry x="886.4000000000001" y="840" width="61.54" height="80" as="geometry" />
        </mxCell>
        <mxCell id="RXSs1f2tlcP7hVlA23r_-10" value="&lt;b&gt;CEPH 2&lt;br&gt;&lt;/b&gt;" style="text;html=1;align=center;verticalAlign=middle;whiteSpace=wrap;rounded=0;fontFamily=Architects Daughter;fontSource=https%3A%2F%2Ffonts.googleapis.com%2Fcss%3Ffamily%3DArchitects%2BDaughter;fillColor=#fff2cc;strokeColor=none;" vertex="1" parent="1">
          <mxGeometry x="1037.6" y="900" width="60" height="10" as="geometry" />
        </mxCell>
        <mxCell id="RXSs1f2tlcP7hVlA23r_-11" value="&lt;b&gt;PVE 2&lt;br&gt;&lt;/b&gt;" style="text;html=1;align=center;verticalAlign=middle;whiteSpace=wrap;rounded=0;fontFamily=Architects Daughter;fontSource=https%3A%2F%2Ffonts.googleapis.com%2Fcss%3Ffamily%3DArchitects%2BDaughter;fillColor=#fff2cc;strokeColor=#d6b656;" vertex="1" parent="1">
          <mxGeometry x="897.17" y="872.5" width="40" height="15" as="geometry" />
        </mxCell>
        <mxCell id="RXSs1f2tlcP7hVlA23r_-12" value="" style="sketch=0;points=[[0.015,0.015,0],[0.985,0.015,0],[0.985,0.985,0],[0.015,0.985,0],[0.25,0,0],[0.5,0,0],[0.75,0,0],[1,0.25,0],[1,0.5,0],[1,0.75,0],[0.75,1,0],[0.5,1,0],[0.25,1,0],[0,0.75,0],[0,0.5,0],[0,0.25,0]];verticalLabelPosition=bottom;html=1;verticalAlign=top;aspect=fixed;align=center;pointerEvents=1;shape=mxgraph.cisco19.rect;prIcon=storage;hachureGap=4;jiggle=2;curveFitting=1;fontFamily=Architects Daughter;fontSource=https%3A%2F%2Ffonts.googleapis.com%2Fcss%3Ffamily%3DArchitects%2BDaughter;fillColor=#e1d5e7;strokeColor=#9673a6;" vertex="1" parent="1">
          <mxGeometry x="1440" y="840" width="102.4" height="80" as="geometry" />
        </mxCell>
        <mxCell id="RXSs1f2tlcP7hVlA23r_-13" value="" style="sketch=0;points=[[0.015,0.015,0],[0.985,0.015,0],[0.985,0.985,0],[0.015,0.985,0],[0.25,0,0],[0.5,0,0],[0.75,0,0],[1,0.25,0],[1,0.5,0],[1,0.75,0],[0.75,1,0],[0.5,1,0],[0.25,1,0],[0,0.75,0],[0,0.5,0],[0,0.25,0]];verticalLabelPosition=bottom;html=1;verticalAlign=top;aspect=fixed;align=center;pointerEvents=1;shape=mxgraph.cisco19.rect;prIcon=hypervisor;fillColor=#e1d5e7;strokeColor=#9673a6;hachureGap=4;jiggle=2;curveFitting=1;fontFamily=Architects Daughter;fontSource=https%3A%2F%2Ffonts.googleapis.com%2Fcss%3Ffamily%3DArchitects%2BDaughter;" vertex="1" parent="1">
          <mxGeometry x="1310" y="840" width="61.54" height="80" as="geometry" />
        </mxCell>
        <mxCell id="RXSs1f2tlcP7hVlA23r_-14" value="&lt;b&gt;CEPH 3&lt;br&gt;&lt;/b&gt;" style="text;html=1;align=center;verticalAlign=middle;whiteSpace=wrap;rounded=0;fontFamily=Architects Daughter;fontSource=https%3A%2F%2Ffonts.googleapis.com%2Fcss%3Ffamily%3DArchitects%2BDaughter;fillColor=#e1d5e7;strokeColor=none;" vertex="1" parent="1">
          <mxGeometry x="1461.2" y="900" width="60" height="10" as="geometry" />
        </mxCell>
        <mxCell id="RXSs1f2tlcP7hVlA23r_-15" value="&lt;b&gt;PVE 3&lt;br&gt;&lt;/b&gt;" style="text;html=1;align=center;verticalAlign=middle;whiteSpace=wrap;rounded=0;fontFamily=Architects Daughter;fontSource=https%3A%2F%2Ffonts.googleapis.com%2Fcss%3Ffamily%3DArchitects%2BDaughter;fillColor=#e1d5e7;strokeColor=#9673a6;" vertex="1" parent="1">
          <mxGeometry x="1320.77" y="872.5" width="40" height="15" as="geometry" />
        </mxCell>
        <mxCell id="RXSs1f2tlcP7hVlA23r_-16" value="" style="endArrow=none;html=1;rounded=0;sketch=1;hachureGap=4;jiggle=2;curveFitting=1;fontFamily=Architects Daughter;fontSource=https%3A%2F%2Ffonts.googleapis.com%2Fcss%3Ffamily%3DArchitects%2BDaughter;exitX=0.5;exitY=0;exitDx=0;exitDy=0;exitPerimeter=0;entryX=0.25;entryY=1;entryDx=0;entryDy=0;entryPerimeter=0;fillColor=#fff2cc;strokeColor=#d6b656;" edge="1" parent="1" source="RXSs1f2tlcP7hVlA23r_-9" target="694_kqd1ENcuf0BIbk9--17">
          <mxGeometry width="50" height="50" relative="1" as="geometry">
            <mxPoint x="760" y="580" as="sourcePoint" />
            <mxPoint x="860" y="490" as="targetPoint" />
          </mxGeometry>
        </mxCell>
        <mxCell id="RXSs1f2tlcP7hVlA23r_-17" value="" style="endArrow=none;html=1;rounded=0;sketch=1;hachureGap=4;jiggle=2;curveFitting=1;fontFamily=Architects Daughter;fontSource=https%3A%2F%2Ffonts.googleapis.com%2Fcss%3Ffamily%3DArchitects%2BDaughter;exitX=0.5;exitY=0;exitDx=0;exitDy=0;exitPerimeter=0;entryX=0.25;entryY=1;entryDx=0;entryDy=0;entryPerimeter=0;fillColor=#fff2cc;strokeColor=#d6b656;" edge="1" parent="1" source="RXSs1f2tlcP7hVlA23r_-9" target="694_kqd1ENcuf0BIbk9--18">
          <mxGeometry width="50" height="50" relative="1" as="geometry">
            <mxPoint x="760" y="580" as="sourcePoint" />
            <mxPoint x="810" y="530" as="targetPoint" />
          </mxGeometry>
        </mxCell>
        <mxCell id="RXSs1f2tlcP7hVlA23r_-18" value="" style="endArrow=none;html=1;rounded=0;sketch=1;hachureGap=4;jiggle=2;curveFitting=1;fontFamily=Architects Daughter;fontSource=https%3A%2F%2Ffonts.googleapis.com%2Fcss%3Ffamily%3DArchitects%2BDaughter;exitX=0.426;exitY=-0.025;exitDx=0;exitDy=0;exitPerimeter=0;entryX=0.75;entryY=1;entryDx=0;entryDy=0;entryPerimeter=0;fillColor=#fff2cc;strokeColor=#d6b656;" edge="1" parent="1" source="RXSs1f2tlcP7hVlA23r_-8" target="694_kqd1ENcuf0BIbk9--17">
          <mxGeometry width="50" height="50" relative="1" as="geometry">
            <mxPoint x="760" y="580" as="sourcePoint" />
            <mxPoint x="810" y="530" as="targetPoint" />
          </mxGeometry>
        </mxCell>
        <mxCell id="RXSs1f2tlcP7hVlA23r_-19" value="" style="endArrow=none;html=1;rounded=0;sketch=1;hachureGap=4;jiggle=2;curveFitting=1;fontFamily=Architects Daughter;fontSource=https%3A%2F%2Ffonts.googleapis.com%2Fcss%3Ffamily%3DArchitects%2BDaughter;entryX=0.75;entryY=1;entryDx=0;entryDy=0;entryPerimeter=0;exitX=0.426;exitY=0.013;exitDx=0;exitDy=0;exitPerimeter=0;fillColor=#fff2cc;strokeColor=#d6b656;" edge="1" parent="1" source="RXSs1f2tlcP7hVlA23r_-8" target="694_kqd1ENcuf0BIbk9--18">
          <mxGeometry width="50" height="50" relative="1" as="geometry">
            <mxPoint x="760" y="580" as="sourcePoint" />
            <mxPoint x="810" y="530" as="targetPoint" />
          </mxGeometry>
        </mxCell>
        <mxCell id="RXSs1f2tlcP7hVlA23r_-20" value="" style="endArrow=none;html=1;rounded=0;sketch=1;hachureGap=4;jiggle=2;curveFitting=1;fontFamily=Architects Daughter;fontSource=https%3A%2F%2Ffonts.googleapis.com%2Fcss%3Ffamily%3DArchitects%2BDaughter;exitX=0.5;exitY=0;exitDx=0;exitDy=0;exitPerimeter=0;entryX=0.25;entryY=1;entryDx=0;entryDy=0;entryPerimeter=0;fillColor=#e1d5e7;strokeColor=#9673a6;" edge="1" parent="1" source="RXSs1f2tlcP7hVlA23r_-13" target="694_kqd1ENcuf0BIbk9--27">
          <mxGeometry width="50" height="50" relative="1" as="geometry">
            <mxPoint x="1190" y="610" as="sourcePoint" />
            <mxPoint x="1240" y="560" as="targetPoint" />
          </mxGeometry>
        </mxCell>
        <mxCell id="RXSs1f2tlcP7hVlA23r_-21" value="" style="endArrow=none;html=1;rounded=0;sketch=1;hachureGap=4;jiggle=2;curveFitting=1;fontFamily=Architects Daughter;fontSource=https%3A%2F%2Ffonts.googleapis.com%2Fcss%3Ffamily%3DArchitects%2BDaughter;exitX=0.5;exitY=0;exitDx=0;exitDy=0;exitPerimeter=0;entryX=0.25;entryY=1;entryDx=0;entryDy=0;entryPerimeter=0;fillColor=#e1d5e7;strokeColor=#9673a6;" edge="1" parent="1" source="RXSs1f2tlcP7hVlA23r_-13" target="694_kqd1ENcuf0BIbk9--28">
          <mxGeometry width="50" height="50" relative="1" as="geometry">
            <mxPoint x="1190" y="610" as="sourcePoint" />
            <mxPoint x="1240" y="560" as="targetPoint" />
          </mxGeometry>
        </mxCell>
        <mxCell id="RXSs1f2tlcP7hVlA23r_-22" value="" style="endArrow=none;html=1;rounded=0;sketch=1;hachureGap=4;jiggle=2;curveFitting=1;fontFamily=Architects Daughter;fontSource=https%3A%2F%2Ffonts.googleapis.com%2Fcss%3Ffamily%3DArchitects%2BDaughter;exitX=0.5;exitY=0;exitDx=0;exitDy=0;exitPerimeter=0;entryX=0.75;entryY=1;entryDx=0;entryDy=0;entryPerimeter=0;fillColor=#e1d5e7;strokeColor=#9673a6;" edge="1" parent="1" source="RXSs1f2tlcP7hVlA23r_-12" target="694_kqd1ENcuf0BIbk9--27">
          <mxGeometry width="50" height="50" relative="1" as="geometry">
            <mxPoint x="1190" y="610" as="sourcePoint" />
            <mxPoint x="1240" y="560" as="targetPoint" />
          </mxGeometry>
        </mxCell>
        <mxCell id="RXSs1f2tlcP7hVlA23r_-23" value="" style="endArrow=none;html=1;rounded=0;sketch=1;hachureGap=4;jiggle=2;curveFitting=1;fontFamily=Architects Daughter;fontSource=https%3A%2F%2Ffonts.googleapis.com%2Fcss%3Ffamily%3DArchitects%2BDaughter;exitX=0.5;exitY=0;exitDx=0;exitDy=0;exitPerimeter=0;entryX=0.75;entryY=1;entryDx=0;entryDy=0;entryPerimeter=0;fillColor=#e1d5e7;strokeColor=#9673a6;" edge="1" parent="1" source="RXSs1f2tlcP7hVlA23r_-12" target="694_kqd1ENcuf0BIbk9--28">
          <mxGeometry width="50" height="50" relative="1" as="geometry">
            <mxPoint x="1190" y="610" as="sourcePoint" />
            <mxPoint x="1240" y="560" as="targetPoint" />
          </mxGeometry>
        </mxCell>
        <mxCell id="RXSs1f2tlcP7hVlA23r_-27" value="&lt;blockquote&gt;&lt;b style=&quot;color: rgb(0, 153, 0);&quot;&gt;Eth2/1&lt;/b&gt;&lt;/blockquote&gt;" style="text;html=1;align=center;verticalAlign=middle;whiteSpace=wrap;rounded=0;fontFamily=Architects Daughter;fontSource=https%3A%2F%2Ffonts.googleapis.com%2Fcss%3Ffamily%3DArchitects%2BDaughter;fillColor=none;strokeColor=none;rotation=-65;" vertex="1" parent="1">
          <mxGeometry x="686.32" y="170" width="50.48" height="30" as="geometry" />
        </mxCell>
        <mxCell id="RXSs1f2tlcP7hVlA23r_-28" value="&lt;blockquote&gt;&lt;b style=&quot;color: rgb(0, 153, 0);&quot;&gt;Et31/1&lt;/b&gt;&lt;/blockquote&gt;" style="text;html=1;align=center;verticalAlign=middle;whiteSpace=wrap;rounded=0;fontFamily=Architects Daughter;fontSource=https%3A%2F%2Ffonts.googleapis.com%2Fcss%3Ffamily%3DArchitects%2BDaughter;fillColor=none;strokeColor=none;rotation=-114;" vertex="1" parent="1">
          <mxGeometry x="729.52" y="170" width="50.48" height="30" as="geometry" />
        </mxCell>
        <mxCell id="RXSs1f2tlcP7hVlA23r_-29" value="&lt;blockquote&gt;&lt;b style=&quot;color: rgb(0, 153, 0);&quot;&gt;Et41/1&lt;/b&gt;&lt;/blockquote&gt;" style="text;html=1;align=center;verticalAlign=middle;whiteSpace=wrap;rounded=0;fontFamily=Architects Daughter;fontSource=https%3A%2F%2Ffonts.googleapis.com%2Fcss%3Ffamily%3DArchitects%2BDaughter;fillColor=none;strokeColor=none;rotation=-140;" vertex="1" parent="1">
          <mxGeometry x="760" y="170" width="50.48" height="30" as="geometry" />
        </mxCell>
        <mxCell id="RXSs1f2tlcP7hVlA23r_-30" value="&lt;blockquote&gt;&lt;b style=&quot;color: rgb(0, 153, 0);&quot;&gt;Eth5/1&lt;/b&gt;&lt;/blockquote&gt;" style="text;html=1;align=center;verticalAlign=middle;whiteSpace=wrap;rounded=0;fontFamily=Architects Daughter;fontSource=https%3A%2F%2Ffonts.googleapis.com%2Fcss%3Ffamily%3DArchitects%2BDaughter;fillColor=none;strokeColor=none;rotation=-155;" vertex="1" parent="1">
          <mxGeometry x="797.37" y="174.55" width="51.43" height="25.45" as="geometry" />
        </mxCell>
        <mxCell id="RXSs1f2tlcP7hVlA23r_-31" value="&lt;blockquote&gt;&lt;b style=&quot;color: rgb(204, 0, 0);&quot;&gt;Eth2/1&lt;/b&gt;&lt;/blockquote&gt;" style="text;html=1;align=center;verticalAlign=middle;whiteSpace=wrap;rounded=0;fontFamily=Architects Daughter;fontSource=https%3A%2F%2Ffonts.googleapis.com%2Fcss%3Ffamily%3DArchitects%2BDaughter;fillColor=none;strokeColor=none;rotation=-15;" vertex="1" parent="1">
          <mxGeometry x="1138.8" y="160" width="50.48" height="30" as="geometry" />
        </mxCell>
        <mxCell id="RXSs1f2tlcP7hVlA23r_-32" value="&lt;blockquote&gt;&lt;b style=&quot;color: rgb(204, 0, 0);&quot;&gt;Eth3/1&lt;/b&gt;&lt;/blockquote&gt;" style="text;html=1;align=center;verticalAlign=middle;whiteSpace=wrap;rounded=0;fontFamily=Architects Daughter;fontSource=https%3A%2F%2Ffonts.googleapis.com%2Fcss%3Ffamily%3DArchitects%2BDaughter;fillColor=none;strokeColor=none;rotation=-30;" vertex="1" parent="1">
          <mxGeometry x="1147.02" y="180.67" width="50.48" height="20" as="geometry" />
        </mxCell>
        <mxCell id="RXSs1f2tlcP7hVlA23r_-34" value="&lt;blockquote&gt;&lt;b style=&quot;color: rgb(204, 0, 0);&quot;&gt;Eth4/1&lt;/b&gt;&lt;/blockquote&gt;" style="text;html=1;align=center;verticalAlign=middle;whiteSpace=wrap;rounded=0;fontFamily=Architects Daughter;fontSource=https%3A%2F%2Ffonts.googleapis.com%2Fcss%3Ffamily%3DArchitects%2BDaughter;fillColor=none;strokeColor=none;rotation=-60;" vertex="1" parent="1">
          <mxGeometry x="1189.28" y="180.67" width="50.48" height="30" as="geometry" />
        </mxCell>
        <mxCell id="RXSs1f2tlcP7hVlA23r_-35" value="&lt;blockquote&gt;&lt;b style=&quot;color: rgb(204, 0, 0);&quot;&gt;Et51/1&lt;/b&gt;&lt;/blockquote&gt;" style="text;html=1;align=center;verticalAlign=middle;whiteSpace=wrap;rounded=0;fontFamily=Architects Daughter;fontSource=https%3A%2F%2Ffonts.googleapis.com%2Fcss%3Ffamily%3DArchitects%2BDaughter;fillColor=none;strokeColor=none;rotation=-111;" vertex="1" parent="1">
          <mxGeometry x="1239.76" y="180" width="50.48" height="30" as="geometry" />
        </mxCell>
        <mxCell id="RXSs1f2tlcP7hVlA23r_-36" value="" style="endArrow=none;html=1;rounded=0;sketch=1;hachureGap=4;jiggle=2;curveFitting=1;fontFamily=Architects Daughter;fontSource=https%3A%2F%2Ffonts.googleapis.com%2Fcss%3Ffamily%3DArchitects%2BDaughter;exitX=0.5;exitY=0;exitDx=0;exitDy=0;exitPerimeter=0;entryX=0.693;entryY=0.988;entryDx=0;entryDy=0;entryPerimeter=0;fillColor=#dae8fc;strokeColor=#6c8ebf;" edge="1" parent="1" source="694_kqd1ENcuf0BIbk9--85" target="KGmbzjt1s6p-L2s5GnYh-11">
          <mxGeometry width="50" height="50" relative="1" as="geometry">
            <mxPoint x="560" y="810" as="sourcePoint" />
            <mxPoint x="460" y="490" as="targetPoint" />
          </mxGeometry>
        </mxCell>
        <mxCell id="RXSs1f2tlcP7hVlA23r_-39" value="" style="endArrow=none;html=1;rounded=0;sketch=1;hachureGap=4;jiggle=2;curveFitting=1;fontFamily=Architects Daughter;fontSource=https%3A%2F%2Ffonts.googleapis.com%2Fcss%3Ffamily%3DArchitects%2BDaughter;exitX=0.985;exitY=0.015;exitDx=0;exitDy=0;exitPerimeter=0;entryX=0.664;entryY=0.975;entryDx=0;entryDy=0;entryPerimeter=0;fillColor=#dae8fc;strokeColor=#6c8ebf;" edge="1" parent="1" source="694_kqd1ENcuf0BIbk9--85" target="KGmbzjt1s6p-L2s5GnYh-11">
          <mxGeometry width="50" height="50" relative="1" as="geometry">
            <mxPoint x="700" y="540" as="sourcePoint" />
            <mxPoint x="750" y="490" as="targetPoint" />
          </mxGeometry>
        </mxCell>
        <mxCell id="RXSs1f2tlcP7hVlA23r_-40" value="" style="endArrow=none;html=1;rounded=0;sketch=1;hachureGap=4;jiggle=2;curveFitting=1;fontFamily=Architects Daughter;fontSource=https%3A%2F%2Ffonts.googleapis.com%2Fcss%3Ffamily%3DArchitects%2BDaughter;exitX=0.5;exitY=0;exitDx=0;exitDy=0;exitPerimeter=0;entryX=0.75;entryY=1;entryDx=0;entryDy=0;entryPerimeter=0;fillColor=#dae8fc;strokeColor=#6c8ebf;" edge="1" parent="1" source="694_kqd1ENcuf0BIbk9--85" target="KGmbzjt1s6p-L2s5GnYh-14">
          <mxGeometry width="50" height="50" relative="1" as="geometry">
            <mxPoint x="700" y="540" as="sourcePoint" />
            <mxPoint x="750" y="490" as="targetPoint" />
          </mxGeometry>
        </mxCell>
        <mxCell id="RXSs1f2tlcP7hVlA23r_-41" value="" style="endArrow=none;html=1;rounded=0;sketch=1;hachureGap=4;jiggle=2;curveFitting=1;fontFamily=Architects Daughter;fontSource=https%3A%2F%2Ffonts.googleapis.com%2Fcss%3Ffamily%3DArchitects%2BDaughter;exitX=0.985;exitY=0.015;exitDx=0;exitDy=0;exitPerimeter=0;entryX=0.75;entryY=1;entryDx=0;entryDy=0;entryPerimeter=0;fillColor=#dae8fc;strokeColor=#6c8ebf;" edge="1" parent="1" source="694_kqd1ENcuf0BIbk9--85" target="KGmbzjt1s6p-L2s5GnYh-14">
          <mxGeometry width="50" height="50" relative="1" as="geometry">
            <mxPoint x="700" y="540" as="sourcePoint" />
            <mxPoint x="750" y="490" as="targetPoint" />
          </mxGeometry>
        </mxCell>
        <mxCell id="RXSs1f2tlcP7hVlA23r_-42" value="" style="endArrow=none;html=1;rounded=0;sketch=1;hachureGap=4;jiggle=2;curveFitting=1;fontFamily=Architects Daughter;fontSource=https%3A%2F%2Ffonts.googleapis.com%2Fcss%3Ffamily%3DArchitects%2BDaughter;exitX=0.439;exitY=0;exitDx=0;exitDy=0;exitPerimeter=0;entryX=0.985;entryY=0.985;entryDx=0;entryDy=0;entryPerimeter=0;fillColor=#dae8fc;strokeColor=#6c8ebf;" edge="1" parent="1" source="694_kqd1ENcuf0BIbk9--84" target="KGmbzjt1s6p-L2s5GnYh-11">
          <mxGeometry width="50" height="50" relative="1" as="geometry">
            <mxPoint x="700" y="540" as="sourcePoint" />
            <mxPoint x="750" y="490" as="targetPoint" />
          </mxGeometry>
        </mxCell>
        <mxCell id="RXSs1f2tlcP7hVlA23r_-43" value="" style="endArrow=none;html=1;rounded=0;sketch=1;hachureGap=4;jiggle=2;curveFitting=1;fontFamily=Architects Daughter;fontSource=https%3A%2F%2Ffonts.googleapis.com%2Fcss%3Ffamily%3DArchitects%2BDaughter;exitX=0.985;exitY=0.015;exitDx=0;exitDy=0;exitPerimeter=0;entryX=0.985;entryY=0.985;entryDx=0;entryDy=0;entryPerimeter=0;fillColor=#dae8fc;strokeColor=#6c8ebf;" edge="1" parent="1" source="694_kqd1ENcuf0BIbk9--84" target="KGmbzjt1s6p-L2s5GnYh-11">
          <mxGeometry width="50" height="50" relative="1" as="geometry">
            <mxPoint x="700" y="540" as="sourcePoint" />
            <mxPoint x="750" y="490" as="targetPoint" />
          </mxGeometry>
        </mxCell>
        <mxCell id="RXSs1f2tlcP7hVlA23r_-44" value="" style="endArrow=none;html=1;rounded=0;sketch=1;hachureGap=4;jiggle=2;curveFitting=1;fontFamily=Architects Daughter;fontSource=https%3A%2F%2Ffonts.googleapis.com%2Fcss%3Ffamily%3DArchitects%2BDaughter;exitX=0.41;exitY=0.025;exitDx=0;exitDy=0;exitPerimeter=0;entryX=0.985;entryY=0.985;entryDx=0;entryDy=0;entryPerimeter=0;fillColor=#dae8fc;strokeColor=#6c8ebf;" edge="1" parent="1" source="694_kqd1ENcuf0BIbk9--84" target="KGmbzjt1s6p-L2s5GnYh-14">
          <mxGeometry width="50" height="50" relative="1" as="geometry">
            <mxPoint x="700" y="540" as="sourcePoint" />
            <mxPoint x="750" y="490" as="targetPoint" />
          </mxGeometry>
        </mxCell>
        <mxCell id="RXSs1f2tlcP7hVlA23r_-45" value="" style="endArrow=none;html=1;rounded=0;sketch=1;hachureGap=4;jiggle=2;curveFitting=1;fontFamily=Architects Daughter;fontSource=https%3A%2F%2Ffonts.googleapis.com%2Fcss%3Ffamily%3DArchitects%2BDaughter;exitX=0.985;exitY=0.015;exitDx=0;exitDy=0;exitPerimeter=0;entryX=0.985;entryY=0.985;entryDx=0;entryDy=0;entryPerimeter=0;fillColor=#dae8fc;strokeColor=#6c8ebf;" edge="1" parent="1" source="694_kqd1ENcuf0BIbk9--84" target="KGmbzjt1s6p-L2s5GnYh-14">
          <mxGeometry width="50" height="50" relative="1" as="geometry">
            <mxPoint x="700" y="540" as="sourcePoint" />
            <mxPoint x="750" y="490" as="targetPoint" />
          </mxGeometry>
        </mxCell>
        <mxCell id="RXSs1f2tlcP7hVlA23r_-51" value="" style="endArrow=none;html=1;rounded=0;sketch=1;hachureGap=4;jiggle=2;curveFitting=1;fontFamily=Architects Daughter;fontSource=https%3A%2F%2Ffonts.googleapis.com%2Fcss%3Ffamily%3DArchitects%2BDaughter;exitX=0.015;exitY=0.015;exitDx=0;exitDy=0;exitPerimeter=0;entryX=0.25;entryY=1;entryDx=0;entryDy=0;entryPerimeter=0;fillColor=#fff2cc;strokeColor=#d6b656;" edge="1" parent="1" source="RXSs1f2tlcP7hVlA23r_-9" target="694_kqd1ENcuf0BIbk9--17">
          <mxGeometry width="50" height="50" relative="1" as="geometry">
            <mxPoint x="927" y="850" as="sourcePoint" />
            <mxPoint x="863" y="490" as="targetPoint" />
          </mxGeometry>
        </mxCell>
        <mxCell id="RXSs1f2tlcP7hVlA23r_-52" value="" style="endArrow=none;html=1;rounded=0;sketch=1;hachureGap=4;jiggle=2;curveFitting=1;fontFamily=Architects Daughter;fontSource=https%3A%2F%2Ffonts.googleapis.com%2Fcss%3Ffamily%3DArchitects%2BDaughter;entryX=0.25;entryY=1;entryDx=0;entryDy=0;entryPerimeter=0;fillColor=#fff2cc;strokeColor=#d6b656;exitX=0.985;exitY=0.015;exitDx=0;exitDy=0;exitPerimeter=0;" edge="1" parent="1" source="RXSs1f2tlcP7hVlA23r_-9" target="694_kqd1ENcuf0BIbk9--17">
          <mxGeometry width="50" height="50" relative="1" as="geometry">
            <mxPoint x="960" y="820" as="sourcePoint" />
            <mxPoint x="873" y="500" as="targetPoint" />
          </mxGeometry>
        </mxCell>
        <mxCell id="RXSs1f2tlcP7hVlA23r_-53" value="" style="endArrow=none;html=1;rounded=0;sketch=1;hachureGap=4;jiggle=2;curveFitting=1;fontFamily=Architects Daughter;fontSource=https%3A%2F%2Ffonts.googleapis.com%2Fcss%3Ffamily%3DArchitects%2BDaughter;exitX=0.015;exitY=0.015;exitDx=0;exitDy=0;exitPerimeter=0;fillColor=#fff2cc;strokeColor=#d6b656;entryX=0.25;entryY=1;entryDx=0;entryDy=0;entryPerimeter=0;" edge="1" parent="1" source="RXSs1f2tlcP7hVlA23r_-9" target="694_kqd1ENcuf0BIbk9--18">
          <mxGeometry width="50" height="50" relative="1" as="geometry">
            <mxPoint x="947" y="870" as="sourcePoint" />
            <mxPoint x="1090" y="590" as="targetPoint" />
          </mxGeometry>
        </mxCell>
        <mxCell id="RXSs1f2tlcP7hVlA23r_-54" value="" style="endArrow=none;html=1;rounded=0;sketch=1;hachureGap=4;jiggle=2;curveFitting=1;fontFamily=Architects Daughter;fontSource=https%3A%2F%2Ffonts.googleapis.com%2Fcss%3Ffamily%3DArchitects%2BDaughter;exitX=0.985;exitY=0.015;exitDx=0;exitDy=0;exitPerimeter=0;entryX=0.25;entryY=1;entryDx=0;entryDy=0;entryPerimeter=0;fillColor=#fff2cc;strokeColor=#d6b656;" edge="1" parent="1" source="RXSs1f2tlcP7hVlA23r_-9" target="694_kqd1ENcuf0BIbk9--18">
          <mxGeometry width="50" height="50" relative="1" as="geometry">
            <mxPoint x="957" y="880" as="sourcePoint" />
            <mxPoint x="893" y="520" as="targetPoint" />
          </mxGeometry>
        </mxCell>
        <mxCell id="RXSs1f2tlcP7hVlA23r_-55" value="" style="endArrow=none;html=1;rounded=0;sketch=1;hachureGap=4;jiggle=2;curveFitting=1;fontFamily=Architects Daughter;fontSource=https%3A%2F%2Ffonts.googleapis.com%2Fcss%3Ffamily%3DArchitects%2BDaughter;exitX=0.985;exitY=0.015;exitDx=0;exitDy=0;exitPerimeter=0;entryX=0.75;entryY=1;entryDx=0;entryDy=0;entryPerimeter=0;fillColor=#fff2cc;strokeColor=#d6b656;" edge="1" parent="1" source="RXSs1f2tlcP7hVlA23r_-8" target="694_kqd1ENcuf0BIbk9--17">
          <mxGeometry width="50" height="50" relative="1" as="geometry">
            <mxPoint x="1070" y="848" as="sourcePoint" />
            <mxPoint x="914" y="490" as="targetPoint" />
          </mxGeometry>
        </mxCell>
        <mxCell id="RXSs1f2tlcP7hVlA23r_-56" value="" style="endArrow=none;html=1;rounded=0;sketch=1;hachureGap=4;jiggle=2;curveFitting=1;fontFamily=Architects Daughter;fontSource=https%3A%2F%2Ffonts.googleapis.com%2Fcss%3Ffamily%3DArchitects%2BDaughter;exitX=0.985;exitY=0.015;exitDx=0;exitDy=0;exitPerimeter=0;entryX=0.75;entryY=1;entryDx=0;entryDy=0;entryPerimeter=0;fillColor=#fff2cc;strokeColor=#d6b656;" edge="1" parent="1" source="RXSs1f2tlcP7hVlA23r_-8" target="694_kqd1ENcuf0BIbk9--18">
          <mxGeometry width="50" height="50" relative="1" as="geometry">
            <mxPoint x="1080" y="858" as="sourcePoint" />
            <mxPoint x="924" y="500" as="targetPoint" />
          </mxGeometry>
        </mxCell>
        <mxCell id="RXSs1f2tlcP7hVlA23r_-57" value="" style="endArrow=none;html=1;rounded=0;sketch=1;hachureGap=4;jiggle=2;curveFitting=1;fontFamily=Architects Daughter;fontSource=https%3A%2F%2Ffonts.googleapis.com%2Fcss%3Ffamily%3DArchitects%2BDaughter;exitX=0.015;exitY=0.015;exitDx=0;exitDy=0;exitPerimeter=0;entryX=0.25;entryY=1;entryDx=0;entryDy=0;entryPerimeter=0;fillColor=#e1d5e7;strokeColor=#9673a6;" edge="1" parent="1" source="RXSs1f2tlcP7hVlA23r_-13" target="694_kqd1ENcuf0BIbk9--27">
          <mxGeometry width="50" height="50" relative="1" as="geometry">
            <mxPoint x="1351" y="850" as="sourcePoint" />
            <mxPoint x="1306" y="490" as="targetPoint" />
          </mxGeometry>
        </mxCell>
        <mxCell id="RXSs1f2tlcP7hVlA23r_-58" value="" style="endArrow=none;html=1;rounded=0;sketch=1;hachureGap=4;jiggle=2;curveFitting=1;fontFamily=Architects Daughter;fontSource=https%3A%2F%2Ffonts.googleapis.com%2Fcss%3Ffamily%3DArchitects%2BDaughter;exitX=0.985;exitY=0.015;exitDx=0;exitDy=0;exitPerimeter=0;fillColor=#e1d5e7;strokeColor=#9673a6;entryX=0.25;entryY=1;entryDx=0;entryDy=0;entryPerimeter=0;" edge="1" parent="1" source="RXSs1f2tlcP7hVlA23r_-13" target="694_kqd1ENcuf0BIbk9--27">
          <mxGeometry width="50" height="50" relative="1" as="geometry">
            <mxPoint x="1361" y="860" as="sourcePoint" />
            <mxPoint x="1300" y="480" as="targetPoint" />
          </mxGeometry>
        </mxCell>
        <mxCell id="RXSs1f2tlcP7hVlA23r_-59" value="" style="endArrow=none;html=1;rounded=0;sketch=1;hachureGap=4;jiggle=2;curveFitting=1;fontFamily=Architects Daughter;fontSource=https%3A%2F%2Ffonts.googleapis.com%2Fcss%3Ffamily%3DArchitects%2BDaughter;entryX=0.25;entryY=1;entryDx=0;entryDy=0;entryPerimeter=0;fillColor=#e1d5e7;strokeColor=#9673a6;exitX=0.015;exitY=0.015;exitDx=0;exitDy=0;exitPerimeter=0;" edge="1" parent="1" source="RXSs1f2tlcP7hVlA23r_-13" target="694_kqd1ENcuf0BIbk9--28">
          <mxGeometry width="50" height="50" relative="1" as="geometry">
            <mxPoint x="1270" y="840" as="sourcePoint" />
            <mxPoint x="1326" y="510" as="targetPoint" />
          </mxGeometry>
        </mxCell>
        <mxCell id="RXSs1f2tlcP7hVlA23r_-60" value="" style="endArrow=none;html=1;rounded=0;sketch=1;hachureGap=4;jiggle=2;curveFitting=1;fontFamily=Architects Daughter;fontSource=https%3A%2F%2Ffonts.googleapis.com%2Fcss%3Ffamily%3DArchitects%2BDaughter;fillColor=#e1d5e7;strokeColor=#9673a6;entryX=0.25;entryY=1;entryDx=0;entryDy=0;entryPerimeter=0;" edge="1" parent="1" target="694_kqd1ENcuf0BIbk9--28">
          <mxGeometry width="50" height="50" relative="1" as="geometry">
            <mxPoint x="1370" y="840" as="sourcePoint" />
            <mxPoint x="1430" y="520" as="targetPoint" />
          </mxGeometry>
        </mxCell>
        <mxCell id="RXSs1f2tlcP7hVlA23r_-62" value="" style="endArrow=none;html=1;rounded=0;sketch=1;hachureGap=4;jiggle=2;curveFitting=1;fontFamily=Architects Daughter;fontSource=https%3A%2F%2Ffonts.googleapis.com%2Fcss%3Ffamily%3DArchitects%2BDaughter;exitX=0.985;exitY=0.015;exitDx=0;exitDy=0;exitPerimeter=0;entryX=0.75;entryY=1;entryDx=0;entryDy=0;entryPerimeter=0;fillColor=#e1d5e7;strokeColor=#9673a6;fontStyle=1" edge="1" parent="1" source="RXSs1f2tlcP7hVlA23r_-12" target="694_kqd1ENcuf0BIbk9--27">
          <mxGeometry width="50" height="50" relative="1" as="geometry">
            <mxPoint x="1401" y="900" as="sourcePoint" />
            <mxPoint x="1356" y="540" as="targetPoint" />
          </mxGeometry>
        </mxCell>
        <mxCell id="RXSs1f2tlcP7hVlA23r_-63" value="" style="endArrow=none;html=1;rounded=0;sketch=1;hachureGap=4;jiggle=2;curveFitting=1;fontFamily=Architects Daughter;fontSource=https%3A%2F%2Ffonts.googleapis.com%2Fcss%3Ffamily%3DArchitects%2BDaughter;exitX=0.985;exitY=0.015;exitDx=0;exitDy=0;exitPerimeter=0;entryX=0.75;entryY=1;entryDx=0;entryDy=0;entryPerimeter=0;fillColor=#e1d5e7;strokeColor=#9673a6;" edge="1" parent="1" source="RXSs1f2tlcP7hVlA23r_-12" target="694_kqd1ENcuf0BIbk9--28">
          <mxGeometry width="50" height="50" relative="1" as="geometry">
            <mxPoint x="1411" y="910" as="sourcePoint" />
            <mxPoint x="1366" y="550" as="targetPoint" />
          </mxGeometry>
        </mxCell>
        <mxCell id="RXSs1f2tlcP7hVlA23r_-70" value="&lt;div&gt;&lt;b&gt;Po 901&lt;/b&gt;&lt;/div&gt;&lt;div&gt;&lt;b&gt;Eth 12/1&lt;br&gt;&lt;/b&gt;&lt;/div&gt;&lt;div&gt;&lt;b&gt;----------&lt;br&gt;&lt;/b&gt;&lt;/div&gt;&lt;div&gt;&lt;b&gt;Lag 1&lt;/b&gt;&lt;/div&gt;&lt;div&gt;&lt;b&gt;Eth 1/1+2/1&lt;/b&gt;&lt;/div&gt;" style="text;html=1;align=center;verticalAlign=middle;whiteSpace=wrap;rounded=0;fontFamily=Architects Daughter;fontSource=https%3A%2F%2Ffonts.googleapis.com%2Fcss%3Ffamily%3DArchitects%2BDaughter;rotation=75;fillColor=default;" vertex="1" parent="1">
          <mxGeometry x="230" y="477.34000000000003" width="58.08" height="72.66" as="geometry" />
        </mxCell>
        <mxCell id="RXSs1f2tlcP7hVlA23r_-74" value="&lt;div&gt;&lt;b&gt;Po 902&lt;/b&gt;&lt;/div&gt;&lt;div&gt;&lt;b&gt;Eth 11/1&lt;br&gt;&lt;/b&gt;&lt;/div&gt;&lt;div&gt;&lt;b&gt;----------&lt;br&gt;&lt;/b&gt;&lt;/div&gt;&lt;div&gt;&lt;b&gt;Lag 1&lt;/b&gt;&lt;/div&gt;&lt;div&gt;&lt;b&gt;Eth 1/1+2/1&lt;/b&gt;&lt;/div&gt;" style="text;html=1;align=center;verticalAlign=middle;whiteSpace=wrap;rounded=0;fontFamily=Architects Daughter;fontSource=https%3A%2F%2Ffonts.googleapis.com%2Fcss%3Ffamily%3DArchitects%2BDaughter;rotation=60;fillColor=default;" vertex="1" parent="1">
          <mxGeometry x="279.52" y="525" width="60" height="90" as="geometry" />
        </mxCell>
        <mxCell id="RXSs1f2tlcP7hVlA23r_-76" value="&lt;div&gt;&lt;b&gt;Po 903&lt;/b&gt;&lt;/div&gt;&lt;div&gt;&lt;b&gt;Eth 10/1&lt;br&gt;&lt;/b&gt;&lt;/div&gt;&lt;div&gt;&lt;b&gt;----------&lt;br&gt;&lt;/b&gt;&lt;/div&gt;&lt;div&gt;&lt;b&gt;Bond leaf&lt;br&gt;&lt;/b&gt;&lt;/div&gt;&lt;div&gt;&lt;b&gt;Eth 1+2&lt;/b&gt;&lt;/div&gt;" style="text;html=1;align=center;verticalAlign=middle;whiteSpace=wrap;rounded=0;fontFamily=Architects Daughter;fontSource=https%3A%2F%2Ffonts.googleapis.com%2Fcss%3Ffamily%3DArchitects%2BDaughter;rotation=30;fillColor=default;" vertex="1" parent="1">
          <mxGeometry x="339.52" y="600" width="60" height="90" as="geometry" />
        </mxCell>
        <mxCell id="XWJcoDkBwgkKIqA3V7UJ-1" value="&lt;div&gt;&lt;b&gt;LEAF Po 904(&lt;span style=&quot;background-color: initial;&quot;&gt;Eth 9/1 ) - CEPH2&amp;nbsp;&lt;/span&gt;&lt;span style=&quot;background-color: initial;&quot;&gt;Bond leafcephosd (&lt;/span&gt;&lt;span style=&quot;background-color: initial;&quot;&gt;Eth 2+3)&lt;/span&gt;&lt;/b&gt;&lt;/div&gt;" style="text;html=1;align=left;verticalAlign=middle;whiteSpace=wrap;rounded=0;fontFamily=Architects Daughter;fontSource=https%3A%2F%2Ffonts.googleapis.com%2Fcss%3Ffamily%3DArchitects%2BDaughter;rotation=0;fillColor=default;" vertex="1" parent="1">
          <mxGeometry x="822.0600000000001" y="582.5" width="343.93" height="20" as="geometry" />
        </mxCell>
        <mxCell id="XWJcoDkBwgkKIqA3V7UJ-7" value="&lt;div&gt;&lt;b&gt;LEAF Po 905(&lt;span style=&quot;background-color: initial;&quot;&gt;Eth 8/1 ) - CEPH2&amp;nbsp;&lt;/span&gt;&lt;span style=&quot;background-color: initial;&quot;&gt;Bond leafceph (&lt;/span&gt;&lt;span style=&quot;background-color: initial;&quot;&gt;Eth 0+1)&lt;/span&gt;&lt;/b&gt;&lt;/div&gt;" style="text;html=1;align=left;verticalAlign=middle;whiteSpace=wrap;rounded=0;fontFamily=Architects Daughter;fontSource=https%3A%2F%2Ffonts.googleapis.com%2Fcss%3Ffamily%3DArchitects%2BDaughter;rotation=0;fillColor=default;" vertex="1" parent="1">
          <mxGeometry x="822.0600000000001" y="615" width="323.93" height="20" as="geometry" />
        </mxCell>
        <mxCell id="XWJcoDkBwgkKIqA3V7UJ-12" value="&lt;div&gt;&lt;b&gt;LEAF Po 906(&lt;/b&gt;&lt;span style=&quot;font-weight: bold; background-color: initial;&quot;&gt;Eth 7/1 ) - PVE2&amp;nbsp;&lt;/span&gt;&lt;span style=&quot;background-color: initial;&quot;&gt;&lt;b&gt;Bond leafpveosd&amp;nbsp;(&lt;/b&gt;&lt;/span&gt;&lt;span style=&quot;background-color: initial;&quot;&gt;&lt;b&gt;enp5s0&amp;nbsp;&lt;/b&gt;&lt;/span&gt;&lt;span style=&quot;background-color: initial; font-weight: bold;&quot;&gt;+&amp;nbsp;&lt;/span&gt;&lt;span style=&quot;background-color: initial;&quot;&gt;&lt;b&gt;enp6s0&lt;/b&gt;&lt;/span&gt;&lt;span style=&quot;background-color: initial; font-weight: bold;&quot;&gt;)&lt;/span&gt;&lt;/div&gt;" style="text;html=1;align=left;verticalAlign=middle;whiteSpace=wrap;rounded=0;fontFamily=Architects Daughter;fontSource=https%3A%2F%2Ffonts.googleapis.com%2Fcss%3Ffamily%3DArchitects%2BDaughter;rotation=0;fillColor=default;" vertex="1" parent="1">
          <mxGeometry x="822.06" y="652.5" width="387.94" height="20" as="geometry" />
        </mxCell>
        <mxCell id="XWJcoDkBwgkKIqA3V7UJ-13" value="&lt;div&gt;&lt;b&gt;LEAF Po 907(&lt;/b&gt;&lt;span style=&quot;font-weight: bold; background-color: initial;&quot;&gt;Eth 6/1 ) - PVE2&amp;nbsp;&lt;/span&gt;&lt;span style=&quot;background-color: initial;&quot;&gt;&lt;b&gt;Bond leafpvecluster (&lt;/b&gt;&lt;/span&gt;&lt;span style=&quot;background-color: initial;&quot;&gt;&lt;b&gt;enp3s0&amp;nbsp;&lt;/b&gt;&lt;/span&gt;&lt;span style=&quot;background-color: initial; font-weight: bold;&quot;&gt;+&amp;nbsp;&lt;/span&gt;&lt;span style=&quot;background-color: initial;&quot;&gt;&lt;b&gt;enp4s0&lt;/b&gt;&lt;/span&gt;&lt;span style=&quot;background-color: initial; font-weight: bold;&quot;&gt;)&lt;/span&gt;&lt;/div&gt;" style="text;html=1;align=left;verticalAlign=middle;whiteSpace=wrap;rounded=0;fontFamily=Architects Daughter;fontSource=https%3A%2F%2Ffonts.googleapis.com%2Fcss%3Ffamily%3DArchitects%2BDaughter;rotation=0;fillColor=default;" vertex="1" parent="1">
          <mxGeometry x="822.0600000000001" y="682.5" width="403.93" height="20" as="geometry" />
        </mxCell>
        <mxCell id="XWJcoDkBwgkKIqA3V7UJ-14" value="&lt;div&gt;&lt;b&gt;LEAF Po 908(&lt;/b&gt;&lt;span style=&quot;font-weight: bold; background-color: initial;&quot;&gt;Eth 5/1 ) - PVE2&amp;nbsp;&lt;/span&gt;&lt;span style=&quot;background-color: initial;&quot;&gt;&lt;b&gt;Bond leafpve (&lt;/b&gt;&lt;/span&gt;&lt;span style=&quot;background-color: initial;&quot;&gt;&lt;b&gt;enp1s0&amp;nbsp;&lt;/b&gt;&lt;/span&gt;&lt;span style=&quot;background-color: initial; font-weight: bold;&quot;&gt;+&amp;nbsp;&lt;/span&gt;&lt;span style=&quot;background-color: initial;&quot;&gt;&lt;b&gt;enp2s0&lt;/b&gt;&lt;/span&gt;&lt;span style=&quot;background-color: initial; font-weight: bold;&quot;&gt;)&lt;/span&gt;&lt;/div&gt;" style="text;html=1;align=left;verticalAlign=middle;whiteSpace=wrap;rounded=0;fontFamily=Architects Daughter;fontSource=https%3A%2F%2Ffonts.googleapis.com%2Fcss%3Ffamily%3DArchitects%2BDaughter;rotation=0;fillColor=default;" vertex="1" parent="1">
          <mxGeometry x="820" y="712.5" width="355.99" height="20" as="geometry" />
        </mxCell>
        <mxCell id="XWJcoDkBwgkKIqA3V7UJ-19" value="&lt;div&gt;&lt;b&gt;LEAF Po 904(&lt;span style=&quot;background-color: initial;&quot;&gt;Eth 9/1 ) - CEPH3&amp;nbsp;&lt;/span&gt;&lt;span style=&quot;background-color: initial;&quot;&gt;Bond leafcephosd (&lt;/span&gt;&lt;span style=&quot;background-color: initial;&quot;&gt;Eth 2+3)&lt;/span&gt;&lt;/b&gt;&lt;/div&gt;" style="text;html=1;align=left;verticalAlign=middle;whiteSpace=wrap;rounded=0;fontFamily=Architects Daughter;fontSource=https%3A%2F%2Ffonts.googleapis.com%2Fcss%3Ffamily%3DArchitects%2BDaughter;rotation=0;fillColor=default;" vertex="1" parent="1">
          <mxGeometry x="1250.06" y="582.5" width="343.93" height="20" as="geometry" />
        </mxCell>
        <mxCell id="XWJcoDkBwgkKIqA3V7UJ-20" value="&lt;div&gt;&lt;b&gt;LEAF Po 905(&lt;span style=&quot;background-color: initial;&quot;&gt;Eth 8/1 ) - CEPH3&amp;nbsp;&lt;/span&gt;&lt;span style=&quot;background-color: initial;&quot;&gt;Bond leafceph (&lt;/span&gt;&lt;span style=&quot;background-color: initial;&quot;&gt;Eth 0+1)&lt;/span&gt;&lt;/b&gt;&lt;/div&gt;" style="text;html=1;align=left;verticalAlign=middle;whiteSpace=wrap;rounded=0;fontFamily=Architects Daughter;fontSource=https%3A%2F%2Ffonts.googleapis.com%2Fcss%3Ffamily%3DArchitects%2BDaughter;rotation=0;fillColor=default;" vertex="1" parent="1">
          <mxGeometry x="1250.06" y="615" width="323.93" height="20" as="geometry" />
        </mxCell>
        <mxCell id="XWJcoDkBwgkKIqA3V7UJ-21" value="&lt;div&gt;&lt;b&gt;LEAF Po 906(&lt;/b&gt;&lt;span style=&quot;font-weight: bold; background-color: initial;&quot;&gt;Eth 7/1 ) - PVE3&amp;nbsp;&lt;/span&gt;&lt;span style=&quot;background-color: initial;&quot;&gt;&lt;b&gt;Bond leafpveosd&amp;nbsp;(&lt;/b&gt;&lt;/span&gt;&lt;span style=&quot;background-color: initial;&quot;&gt;&lt;b&gt;enp5s0&amp;nbsp;&lt;/b&gt;&lt;/span&gt;&lt;span style=&quot;background-color: initial; font-weight: bold;&quot;&gt;+&amp;nbsp;&lt;/span&gt;&lt;span style=&quot;background-color: initial;&quot;&gt;&lt;b&gt;enp6s0&lt;/b&gt;&lt;/span&gt;&lt;span style=&quot;background-color: initial; font-weight: bold;&quot;&gt;)&lt;/span&gt;&lt;/div&gt;" style="text;html=1;align=left;verticalAlign=middle;whiteSpace=wrap;rounded=0;fontFamily=Architects Daughter;fontSource=https%3A%2F%2Ffonts.googleapis.com%2Fcss%3Ffamily%3DArchitects%2BDaughter;rotation=0;fillColor=default;" vertex="1" parent="1">
          <mxGeometry x="1250.06" y="652.5" width="379.94" height="20" as="geometry" />
        </mxCell>
        <mxCell id="XWJcoDkBwgkKIqA3V7UJ-22" value="&lt;div&gt;&lt;b&gt;LEAF Po 907(&lt;/b&gt;&lt;span style=&quot;font-weight: bold; background-color: initial;&quot;&gt;Eth 6/1 ) - PVE3&amp;nbsp;&lt;/span&gt;&lt;span style=&quot;background-color: initial;&quot;&gt;&lt;b&gt;Bond leafpvecluster (&lt;/b&gt;&lt;/span&gt;&lt;span style=&quot;background-color: initial;&quot;&gt;&lt;b&gt;enp3s0&amp;nbsp;&lt;/b&gt;&lt;/span&gt;&lt;span style=&quot;background-color: initial; font-weight: bold;&quot;&gt;+&amp;nbsp;&lt;/span&gt;&lt;span style=&quot;background-color: initial;&quot;&gt;&lt;b&gt;enp4s0&lt;/b&gt;&lt;/span&gt;&lt;span style=&quot;background-color: initial; font-weight: bold;&quot;&gt;)&lt;/span&gt;&lt;/div&gt;" style="text;html=1;align=left;verticalAlign=middle;whiteSpace=wrap;rounded=0;fontFamily=Architects Daughter;fontSource=https%3A%2F%2Ffonts.googleapis.com%2Fcss%3Ffamily%3DArchitects%2BDaughter;rotation=0;fillColor=default;" vertex="1" parent="1">
          <mxGeometry x="1250.06" y="682.5" width="403.93" height="20" as="geometry" />
        </mxCell>
        <mxCell id="XWJcoDkBwgkKIqA3V7UJ-23" value="&lt;div&gt;&lt;b&gt;LEAF Po 908(&lt;/b&gt;&lt;span style=&quot;font-weight: bold; background-color: initial;&quot;&gt;Eth 5/1 ) - PVE3&amp;nbsp;&lt;/span&gt;&lt;span style=&quot;background-color: initial;&quot;&gt;&lt;b&gt;Bond leafpve (&lt;/b&gt;&lt;/span&gt;&lt;span style=&quot;background-color: initial;&quot;&gt;&lt;b&gt;enp1s0&amp;nbsp;&lt;/b&gt;&lt;/span&gt;&lt;span style=&quot;background-color: initial; font-weight: bold;&quot;&gt;+&amp;nbsp;&lt;/span&gt;&lt;span style=&quot;background-color: initial;&quot;&gt;&lt;b&gt;enp2s0&lt;/b&gt;&lt;/span&gt;&lt;span style=&quot;background-color: initial; font-weight: bold;&quot;&gt;)&lt;/span&gt;&lt;/div&gt;" style="text;html=1;align=left;verticalAlign=middle;whiteSpace=wrap;rounded=0;fontFamily=Architects Daughter;fontSource=https%3A%2F%2Ffonts.googleapis.com%2Fcss%3Ffamily%3DArchitects%2BDaughter;rotation=0;fillColor=default;" vertex="1" parent="1">
          <mxGeometry x="1248" y="712.5" width="355.99" height="20" as="geometry" />
        </mxCell>
        <mxCell id="XWJcoDkBwgkKIqA3V7UJ-24" value="&lt;div&gt;&lt;b&gt;LEAF Po 904(&lt;span style=&quot;background-color: initial;&quot;&gt;Eth 9/1 ) - CEPH1&amp;nbsp;&lt;/span&gt;&lt;span style=&quot;background-color: initial;&quot;&gt;Bond leafcephosd (&lt;/span&gt;&lt;span style=&quot;background-color: initial;&quot;&gt;Eth 2+3)&lt;/span&gt;&lt;/b&gt;&lt;/div&gt;" style="text;html=1;align=left;verticalAlign=middle;whiteSpace=wrap;rounded=0;fontFamily=Architects Daughter;fontSource=https%3A%2F%2Ffonts.googleapis.com%2Fcss%3Ffamily%3DArchitects%2BDaughter;rotation=0;fillColor=default;" vertex="1" parent="1">
          <mxGeometry x="434.30000000000007" y="672.5" width="343.93" height="20" as="geometry" />
        </mxCell>
        <mxCell id="XWJcoDkBwgkKIqA3V7UJ-25" value="&lt;div&gt;&lt;b&gt;LEAF Po 905(&lt;span style=&quot;background-color: initial;&quot;&gt;Eth 8/1 ) - CEPH1&amp;nbsp;&lt;/span&gt;&lt;span style=&quot;background-color: initial;&quot;&gt;Bond leafceph (&lt;/span&gt;&lt;span style=&quot;background-color: initial;&quot;&gt;Eth 0+1)&lt;/span&gt;&lt;/b&gt;&lt;/div&gt;" style="text;html=1;align=left;verticalAlign=middle;whiteSpace=wrap;rounded=0;fontFamily=Architects Daughter;fontSource=https%3A%2F%2Ffonts.googleapis.com%2Fcss%3Ffamily%3DArchitects%2BDaughter;rotation=0;fillColor=default;" vertex="1" parent="1">
          <mxGeometry x="434.30000000000007" y="705" width="323.93" height="20" as="geometry" />
        </mxCell>
        <mxCell id="XWJcoDkBwgkKIqA3V7UJ-26" value="&lt;div&gt;&lt;b&gt;LEAF Po 906(&lt;/b&gt;&lt;span style=&quot;font-weight: bold; background-color: initial;&quot;&gt;Eth 7/1 ) - PVE1&amp;nbsp;&lt;/span&gt;&lt;span style=&quot;background-color: initial;&quot;&gt;&lt;b&gt;Bond leafpveosd&amp;nbsp;(&lt;/b&gt;&lt;/span&gt;&lt;span style=&quot;background-color: initial;&quot;&gt;&lt;b&gt;enp5s0&amp;nbsp;&lt;/b&gt;&lt;/span&gt;&lt;span style=&quot;background-color: initial; font-weight: bold;&quot;&gt;+&amp;nbsp;&lt;/span&gt;&lt;span style=&quot;background-color: initial;&quot;&gt;&lt;b&gt;enp6s0&lt;/b&gt;&lt;/span&gt;&lt;span style=&quot;background-color: initial; font-weight: bold;&quot;&gt;)&lt;/span&gt;&lt;/div&gt;" style="text;html=1;align=left;verticalAlign=middle;whiteSpace=wrap;rounded=0;fontFamily=Architects Daughter;fontSource=https%3A%2F%2Ffonts.googleapis.com%2Fcss%3Ffamily%3DArchitects%2BDaughter;rotation=0;fillColor=default;" vertex="1" parent="1">
          <mxGeometry x="434.30000000000007" y="742.5" width="373.93" height="20" as="geometry" />
        </mxCell>
        <mxCell id="XWJcoDkBwgkKIqA3V7UJ-27" value="&lt;div&gt;&lt;b&gt;LEAF Po 907(&lt;/b&gt;&lt;span style=&quot;font-weight: bold; background-color: initial;&quot;&gt;Eth 6/1 ) - PVE1&amp;nbsp;&lt;/span&gt;&lt;span style=&quot;background-color: initial;&quot;&gt;&lt;b&gt;Bond leafpvecluster (&lt;/b&gt;&lt;/span&gt;&lt;span style=&quot;background-color: initial;&quot;&gt;&lt;b&gt;enp3s0&amp;nbsp;&lt;/b&gt;&lt;/span&gt;&lt;span style=&quot;background-color: initial; font-weight: bold;&quot;&gt;+&amp;nbsp;&lt;/span&gt;&lt;span style=&quot;background-color: initial;&quot;&gt;&lt;b&gt;enp4s0&lt;/b&gt;&lt;/span&gt;&lt;span style=&quot;background-color: initial; font-weight: bold;&quot;&gt;)&lt;/span&gt;&lt;/div&gt;" style="text;html=1;align=left;verticalAlign=middle;whiteSpace=wrap;rounded=0;fontFamily=Architects Daughter;fontSource=https%3A%2F%2Ffonts.googleapis.com%2Fcss%3Ffamily%3DArchitects%2BDaughter;rotation=0;fillColor=default;" vertex="1" parent="1">
          <mxGeometry x="434.30000000000007" y="772.5" width="403.93" height="20" as="geometry" />
        </mxCell>
        <mxCell id="XWJcoDkBwgkKIqA3V7UJ-28" value="&lt;div&gt;&lt;b&gt;LEAF Po 908(&lt;/b&gt;&lt;span style=&quot;font-weight: bold; background-color: initial;&quot;&gt;Eth 5/1 ) - PVE1&amp;nbsp;&lt;/span&gt;&lt;span style=&quot;background-color: initial;&quot;&gt;&lt;b&gt;Bond leafpve (&lt;/b&gt;&lt;/span&gt;&lt;span style=&quot;background-color: initial;&quot;&gt;&lt;b&gt;enp1s0&amp;nbsp;&lt;/b&gt;&lt;/span&gt;&lt;span style=&quot;background-color: initial; font-weight: bold;&quot;&gt;+&amp;nbsp;&lt;/span&gt;&lt;span style=&quot;background-color: initial;&quot;&gt;&lt;b&gt;enp2s0&lt;/b&gt;&lt;/span&gt;&lt;span style=&quot;background-color: initial; font-weight: bold;&quot;&gt;)&lt;/span&gt;&lt;/div&gt;" style="text;html=1;align=left;verticalAlign=middle;whiteSpace=wrap;rounded=0;fontFamily=Architects Daughter;fontSource=https%3A%2F%2Ffonts.googleapis.com%2Fcss%3Ffamily%3DArchitects%2BDaughter;rotation=0;fillColor=default;" vertex="1" parent="1">
          <mxGeometry x="432.24" y="802.5" width="355.99" height="20" as="geometry" />
        </mxCell>
        <mxCell id="XWJcoDkBwgkKIqA3V7UJ-33" value="&lt;b&gt;&lt;font style=&quot;font-size: 21px;&quot;&gt;Infrastructure Automation Course (IAC)&lt;/font&gt;&lt;/b&gt;" style="text;html=1;align=center;verticalAlign=middle;whiteSpace=wrap;rounded=0;fontFamily=Architects Daughter;fontSource=https%3A%2F%2Ffonts.googleapis.com%2Fcss%3Ffamily%3DArchitects%2BDaughter;" vertex="1" parent="1">
          <mxGeometry x="31.54" y="90" width="455" height="30" as="geometry" />
        </mxCell>
        <mxCell id="XWJcoDkBwgkKIqA3V7UJ-34" value="&lt;b&gt;Eth 3/1&lt;/b&gt;" style="text;html=1;align=center;verticalAlign=middle;whiteSpace=wrap;rounded=0;fontFamily=Architects Daughter;fontSource=https%3A%2F%2Ffonts.googleapis.com%2Fcss%3Ffamily%3DArchitects%2BDaughter;rotation=-90;" vertex="1" parent="1">
          <mxGeometry x="47.5" y="642.5" width="60" height="30" as="geometry" />
        </mxCell>
        <mxCell id="XWJcoDkBwgkKIqA3V7UJ-35" value="&lt;b&gt;Eth 3/1&lt;/b&gt;" style="text;html=1;align=center;verticalAlign=middle;whiteSpace=wrap;rounded=0;fontFamily=Architects Daughter;fontSource=https%3A%2F%2Ffonts.googleapis.com%2Fcss%3Ffamily%3DArchitects%2BDaughter;rotation=-45;" vertex="1" parent="1">
          <mxGeometry x="122.5" y="695" width="60" height="30" as="geometry" />
        </mxCell>
      </root>
    </mxGraphModel>
  </diagram>
</mxfile>
